<?xml version="1.0" ?><!DOCTYPE svg  PUBLIC '-//W3C//DTD SVG 1.1//EN'  'http://www.w3.org/Graphics/SVG/1.1/DTD/svg11.dtd'><svg width="64px" height="64px" viewBox="0 0 64 64" enable-background="new 0 0 64 64" id="Layer_1" version="1.1" xml:space="preserve" xmlns="http://www.w3.org/2000/svg" xmlns:xlink="http://www.w3.org/1999/xlink"><path d="M31.838,43.109c-1.343,0-2.662-0.26-3.813-0.75c-4.106-1.75-5.678-6.878-4.569-10.569c0.308-1.026,0.956-2.435,1.85-3.305  c1.457-1.416,3.469-2.285,5.668-2.448c0.31-0.023,0.629-0.035,0.956-0.035c3.823,0,6.873,1.504,8.159,4.024  c1.509,2.956,0.835,7.574-1.502,10.295c-0.669,0.78-1.536,1.452-2.378,1.844C34.878,42.783,33.366,43.109,31.838,43.109z   M31.929,28.002c-0.275,0-0.545,0.01-0.807,0.029c-1.731,0.129-3.302,0.799-4.422,1.888c-0.58,0.564-1.085,1.636-1.328,2.446  c-0.841,2.8,0.451,6.882,3.438,8.154c1.948,0.83,4.563,0.757,6.556-0.168c0.583-0.271,1.22-0.77,1.703-1.333  c1.793-2.087,2.371-5.864,1.238-8.083C37.203,28.772,34.288,28.002,31.929,28.002z"/><path d="M32.056,38.188c-0.171,0-0.345-0.013-0.519-0.04c-1.053-0.165-2.036-0.871-2.629-1.889c-0.591-1.013-0.716-2.161-0.343-3.15  c0.456-1.21,1.49-2.071,2.765-2.303c1.35-0.244,2.829,0.285,3.725,1.296c0.641,0.723,0.931,1.637,0.817,2.574  C35.639,36.612,33.926,38.188,32.056,38.188z M31.995,32.747c-0.104,0-0.207,0.009-0.307,0.027c-0.594,0.107-1.038,0.477-1.25,1.039  c-0.157,0.417-0.083,0.955,0.2,1.438c0.293,0.503,0.745,0.847,1.209,0.919c0.93,0.155,1.921-0.743,2.041-1.735  c0.045-0.371-0.065-0.71-0.328-1.007C33.192,33.015,32.578,32.747,31.995,32.747z"/><path d="M40.624,48.708c-1.958,0-5.258-0.046-8.551-0.092c-3.266-0.045-6.525-0.091-8.448-0.091l-0.456,0.001  c-0.001,0-0.099,0-0.101,0c-1.594,0-3.596-0.188-4.934-1.651c-1.589-1.739-1.583-4.093-1.579-5.984l0-0.133  c0.002-1.491-0.002-2.895-0.008-4.277c-0.008-2.19-0.016-4.33,0.007-6.691l0.003-0.712c0.01-3.519,0.024-8.837,5.196-9.537  c0.937-0.126,5.787-0.14,7.829-0.14c4.591,0,9.892,0.063,11.14,0.183c1.565,0.149,3.342,0.448,4.644,1.536  c1.941,1.623,2.138,3.994,2.061,6.313c-0.006,0.196,0.001,1.307,0.01,2.818c0.016,2.849,0.04,7.151,0.004,9.502l-0.005,0.388  c-0.026,2.074-0.063,4.915-1.311,6.697c-0.903,1.286-2.662,1.8-4.008,1.853C41.806,48.703,41.29,48.708,40.624,48.708z   M23.625,46.525c1.93,0,5.199,0.046,8.476,0.091c4.345,0.062,8.728,0.125,9.938,0.076c0.864-0.034,1.998-0.362,2.448-1.003  c0.895-1.276,0.927-3.862,0.948-5.574l0.005-0.394c0.036-2.329,0.012-6.62-0.004-9.459c-0.009-1.553-0.015-2.692-0.008-2.896  c0.069-2.097-0.134-3.7-1.346-4.713c-0.883-0.738-2.29-0.96-3.551-1.081c-1.03-0.099-5.737-0.173-10.949-0.173  c-4.913,0-7.143,0.065-7.561,0.122c-3.191,0.432-3.453,3.541-3.464,7.561l-0.003,0.726c-0.022,2.352-0.015,4.483-0.007,6.664  c0.005,1.387,0.01,2.794,0.008,4.289l0,0.134c-0.004,1.704-0.008,3.466,1.056,4.63c0.806,0.882,2.2,1.001,3.457,1.001L23.625,46.525  z"/><path d="M39.084,21.324c-0.34,0-0.671-0.173-0.858-0.486c-0.188-0.312-0.362-0.644-0.538-0.979  c-0.679-1.295-1.158-2.099-2.092-2.325c-1.09-0.264-6.03-0.398-7.379,0.051c-0.74,0.245-1.185,1-1.699,1.873  c-0.248,0.42-0.504,0.854-0.811,1.249c-0.34,0.435-0.969,0.514-1.403,0.175c-0.436-0.339-0.514-0.968-0.175-1.403  c0.228-0.292,0.441-0.654,0.667-1.036c0.597-1.013,1.34-2.273,2.791-2.756c1.883-0.626,7.228-0.4,8.483-0.096  c1.88,0.457,2.718,2.056,3.391,3.34c0.158,0.301,0.314,0.6,0.481,0.88c0.284,0.474,0.13,1.088-0.344,1.371  C39.437,21.278,39.259,21.324,39.084,21.324z"/><path d="M39.013,25.563c-0.553,0-1-0.447-1-1s0.447-1,1-1c0.209,0,0.392-0.003,0.564-0.007c0.298-0.005,0.572-0.008,0.905,0  c0.552,0.018,0.986,0.479,0.97,1.03c-0.017,0.553-0.461,0.976-1.03,0.97c-0.298-0.01-0.542-0.006-0.809,0  C39.429,25.559,39.235,25.563,39.013,25.563z"/></svg>