<?xml version="1.0" ?><svg width="512px" height="512px" viewBox="0 0 512 512" style="enable-background:new 0 0 512 512;" version="1.1" xml:space="preserve" xmlns="http://www.w3.org/2000/svg" xmlns:xlink="http://www.w3.org/1999/xlink"><style type="text/css">
	.st0{display:none;}
	.st1{fill:#474747;}
</style><g class="st0" id="Layer_1"/><g id="Layer_2"><g><path class="st1" d="M185.06,413.54c0.45,0.1,0.91,0.14,1.37,0.14s0.92-0.04,1.37-0.14c0.44-0.09,0.88-0.22,1.31-0.4    c0.42-0.17,0.83-0.39,1.2-0.64c0.39-0.25,0.75-0.55,1.07-0.87c1.3-1.3,2.05-3.11,2.05-4.95c0-0.46-0.05-0.92-0.14-1.37    c-0.09-0.44-0.22-0.88-0.4-1.31c-0.17-0.42-0.39-0.83-0.64-1.21c-0.26-0.38-0.55-0.74-0.87-1.06c-0.32-0.32-0.68-0.62-1.07-0.87    c-0.37-0.25-0.78-0.47-1.2-0.64c-0.43-0.18-0.87-0.31-1.31-0.4c-0.91-0.18-1.84-0.18-2.74,0c-0.44,0.09-0.89,0.22-1.31,0.4    c-0.42,0.17-0.83,0.39-1.21,0.64c-0.38,0.25-0.74,0.55-1.06,0.87c-1.3,1.3-2.05,3.11-2.05,4.95c0,1.84,0.75,3.65,2.05,4.95    c0.32,0.32,0.68,0.62,1.06,0.87c0.38,0.25,0.79,0.47,1.21,0.64C184.17,413.32,184.62,413.45,185.06,413.54z"/><path class="st1" d="M158.13,228.26h57.49c3.87,0,7-3.13,7-7s-3.13-7-7-7h-57.49c-8.03,0-14.57-6.53-14.57-14.57v-68.23    c0-7.5,6.1-13.59,13.6-13.59c7.5,0,13.59,6.1,13.59,13.59v42.69c0,6.55,5.33,11.88,11.88,11.88h30.5c1.93,0,3.77-0.79,5.09-2.2    c1.32-1.4,2.01-3.29,1.9-5.21l-4.63-78.84c-0.65-11.1,3.19-21.66,10.81-29.75s17.95-12.54,29.06-12.54s21.44,4.45,29.06,12.54    s11.47,18.65,10.81,29.75l-1.5,25.47c-0.23,3.86,2.72,7.17,6.58,7.4c3.87,0.23,7.17-2.72,7.4-6.58l1.5-25.47    c0.88-14.99-4.31-29.25-14.6-40.18S270.38,43.5,255.37,43.5s-28.95,6.02-39.25,16.94c-10.3,10.92-15.48,25.19-14.6,40.17    l4.2,71.43h-20.96v-40.58c0-15.22-12.38-27.59-27.59-27.59s-27.6,12.38-27.6,27.59v68.23    C129.56,215.44,142.38,228.26,158.13,228.26z"/><path class="st1" d="M293.53,153.17c0.26,0.39,0.55,0.74,0.87,1.07c0.33,0.32,0.69,0.61,1.07,0.87c0.38,0.25,0.79,0.46,1.21,0.64    c0.42,0.17,0.86,0.31,1.31,0.4c0.45,0.09,0.91,0.14,1.36,0.14c0.46,0,0.92-0.05,1.37-0.14c0.45-0.09,0.89-0.23,1.31-0.4    c0.42-0.18,0.83-0.39,1.21-0.64c0.38-0.26,0.74-0.55,1.06-0.87c0.33-0.33,0.62-0.68,0.88-1.07c0.25-0.38,0.46-0.78,0.64-1.21    c0.17-0.42,0.31-0.86,0.4-1.31c0.09-0.45,0.14-0.91,0.14-1.36c0-1.85-0.75-3.65-2.06-4.95c-0.32-0.33-0.68-0.62-1.06-0.87    c-0.38-0.26-0.79-0.47-1.21-0.65c-0.42-0.17-0.86-0.31-1.31-0.4c-0.9-0.18-1.83-0.18-2.73,0c-0.45,0.09-0.89,0.23-1.31,0.4    c-0.42,0.18-0.83,0.39-1.21,0.65c-0.38,0.25-0.74,0.54-1.07,0.87c-0.32,0.32-0.61,0.68-0.87,1.06c-0.25,0.38-0.46,0.79-0.64,1.21    c-0.17,0.42-0.31,0.86-0.4,1.31c-0.09,0.45-0.13,0.91-0.13,1.37c0,0.45,0.04,0.91,0.13,1.36c0.09,0.45,0.23,0.89,0.4,1.31    C293.07,152.39,293.28,152.79,293.53,153.17z"/><path class="st1" d="M305.15,170.05c0.23-3.86-2.72-7.17-6.58-7.4c-3.86-0.23-7.17,2.72-7.4,6.58l-2.91,49.57    c-0.11,1.92,0.57,3.81,1.9,5.21c1.32,1.4,3.17,2.2,5.09,2.2h33.98c6.63,0,12.02-5.39,12.02-12.02v-17.62c0-7.5,6.1-13.6,13.6-13.6    s13.6,6.1,13.6,13.6v37.96c0,10.97-8.92,19.89-19.89,19.89h-55.78c-3.71,0-6.77,2.89-6.99,6.59l-2.22,37.73h-56.37l-2.99-50.92    c-0.23-3.86-3.54-6.81-7.4-6.58c-3.86,0.23-6.8,3.54-6.58,7.4l2.94,50.1h-48.69c-3.87,0-7,3.13-7,7v39.14c0,3.87,3.13,7,7,7h9.13    l3.42,32.42c0.41,3.84,3.84,6.63,7.7,6.23c3.84-0.41,6.63-3.85,6.23-7.7l-3.27-30.95h135.38L312.23,454.5H198.52l-2.69-25.44    c-0.41-3.84-3.85-6.63-7.7-6.23c-3.84,0.41-6.63,3.85-6.23,7.7l3.35,31.71c0.38,3.56,3.38,6.26,6.96,6.26h126.31    c3.58,0,6.58-2.7,6.96-6.26l11.65-110.36h9.13c3.87,0,7-3.13,7-7v-39.14c0-3.87-3.13-7-7-7h-48.69l1.78-30.32h49.18    c18.69,0,33.89-15.2,33.89-33.89v-37.96c0-15.22-12.38-27.6-27.6-27.6s-27.6,12.38-27.6,27.6v15.64h-24.58L305.15,170.05z     M339.27,337.88h-8.43H179.9h-8.43v-25.14h49.11h69.57h49.11V337.88z"/><path class="st1" d="M223.85,424.51h63.04c3.54,0,6.52-2.64,6.95-6.14l5-40.6c0.25-1.99-0.38-3.99-1.7-5.49s-3.24-2.36-5.24-2.36    h-73.04c-2.01,0-3.92,0.86-5.24,2.36s-1.95,3.5-1.7,5.49l5,40.6C217.34,421.88,220.32,424.51,223.85,424.51z M283.98,383.92    l-3.28,26.6h-50.66l-3.28-26.6H283.98z"/></g></g></svg>