<?xml version="1.0" ?><svg width="512px" height="512px" viewBox="0 0 512 512" id="icons" xmlns="http://www.w3.org/2000/svg"><defs><style>.cls-1{stroke-miterlimit:10;}.cls-1,.cls-2{fill:none;stroke:#808285;stroke-width:7px;}.cls-2{stroke-linecap:round;stroke-linejoin:round;}</style></defs><path class="cls-2" d="M391.92,173.25v172.21c0,12.12-9.83,21.94-21.95,21.94H140.03c-12.12,0-21.94-9.82-21.94-21.94V173.25c0-12.11,9.82-21.94,21.94-21.94h13.91l21.42-37.12c1.91-3.3,6.67-3.3,8.58,0l21.42,37.12h92.17l21.43-37.12c1.91-3.3,6.67-3.3,8.58,0l21.42,37.12h21.01c12.12,0,21.95,9.83,21.95,21.94Z"/><path class="cls-1" d="M436.37,183.6c-4.65,13.85-14.67,27.17-24.36,40.05-6.68,8.87-15.21,20.09-19.53,28.84v-41.73c.29-.38,.58-.77,.87-1.15,22.91-30.45,28.6-43.24,14.85-54.37-5.01-4.06-5.79-11.41-1.73-16.42,4.05-5.01,11.4-5.78,16.41-1.73,14.98,12.13,19.64,28.2,13.49,46.51Z"/><path class="cls-1" d="M391.91,296.17s-32.09-59.99-68.46-59.99c-38.39,0-74.84,52.08-81.45,60.51"/><path class="cls-1" d="M121.47,356.72s36.9-73.58,88.05-74.34c45.53-.67,75.54,85.02,75.54,85.02"/><g><path class="cls-1" d="M208.68,228.75c-2.94-5.07-9.27-8.57-16.61-8.57s-13.67,3.51-16.61,8.57c-5.25,2.45-8.57,6.04-8.57,10.05,0,7.39,11.27,13.38,25.18,13.38s25.18-5.99,25.18-13.38c0-4.01-3.32-7.6-8.57-10.05Z"/><ellipse class="cls-1" cx="201.33" cy="201.75" rx="9.91" ry="7.61" transform="translate(-41.43 351.1) rotate(-76.66)"/><ellipse class="cls-1" cx="180.13" cy="201.75" rx="7.61" ry="9.91" transform="translate(-41.69 47) rotate(-13.34)"/><ellipse class="cls-1" cx="163.75" cy="218.02" rx="6.68" ry="8.71" transform="translate(-87.07 111.08) rotate(-30)"/><ellipse class="cls-1" cx="218.55" cy="215.76" rx="8.71" ry="6.68" transform="translate(-77.58 297.15) rotate(-60)"/></g></svg>