<svg xmlns="http://www.w3.org/2000/svg" xmlns:xlink="http://www.w3.org/1999/xlink" width="52.578mm" height="29.845mm" viewBox="4012 3295.5 207 117.5"><title></title><style type="text/css">
*[layerid="1"] {stroke:#000000;fill:#000000;}
*[layerid="2"] {stroke:#000000;fill:#000000;}
*[layerid="3"] {stroke:#000000;fill:#000000;}
*[layerid="4"] {stroke:#000000;fill:#000000;}
*[layerid="5"] {stroke:#000000;fill:#000000;}
*[layerid="6"] {stroke:#000000;fill:#000000;}
*[layerid="7"] {stroke:#000000;fill:#000000;}
*[layerid="8"] {stroke:#000000;fill:#000000;}
*[layerid="9"] {stroke:#000000;fill:#000000;}
*[layerid="10"] {stroke:#000000;fill:#000000;}
*[layerid="11"] {stroke:#000000;fill:#000000;}
*[layerid="12"] {stroke:#000000;fill:#000000;}
*[layerid="13"] {stroke:#000000;fill:#000000;}
*[layerid="14"] {stroke:#000000;fill:#000000;}
*[layerid="15"] {stroke:#000000;fill:#000000;}
*[layerid="19"] {stroke:#000000;fill:#000000;}
*[layerid="21"] {stroke:#000000;fill:#000000;}
*[layerid="22"] {stroke:#000000;fill:#000000;}
*[layerid="23"] {stroke:#000000;fill:#000000;}
*[layerid="24"] {stroke:#000000;fill:#000000;}
*[layerid="25"] {stroke:#000000;fill:#000000;}
*[layerid="26"] {stroke:#000000;fill:#000000;}
*[layerid="27"] {stroke:#000000;fill:#000000;}
*[layerid="28"] {stroke:#000000;fill:#000000;}
*[layerid="29"] {stroke:#000000;fill:#000000;}
*[layerid="30"] {stroke:#000000;fill:#000000;}
*[layerid="31"] {stroke:#000000;fill:#000000;}
*[layerid="32"] {stroke:#000000;fill:#000000;}
*[layerid="33"] {stroke:#000000;fill:#000000;}
*[layerid="34"] {stroke:#000000;fill:#000000;}
*[layerid="35"] {stroke:#000000;fill:#000000;}
*[layerid="36"] {stroke:#000000;fill:#000000;}
*[layerid="37"] {stroke:#000000;fill:#000000;}
*[layerid="38"] {stroke:#000000;fill:#000000;}
*[layerid="39"] {stroke:#000000;fill:#000000;}
*[layerid="40"] {stroke:#000000;fill:#000000;}
*[layerid="41"] {stroke:#000000;fill:#000000;}
*[layerid="42"] {stroke:#000000;fill:#000000;}
*[layerid="43"] {stroke:#000000;fill:#000000;}
*[layerid="44"] {stroke:#000000;fill:#000000;}
*[layerid="45"] {stroke:#000000;fill:#000000;}
*[layerid="46"] {stroke:#000000;fill:#000000;}
*[layerid="47"] {stroke:#000000;fill:#000000;}
*[layerid="48"] {stroke:#000000;fill:#000000;}
*[layerid="49"] {stroke:#000000;fill:#000000;}
*[layerid="50"] {stroke:#000000;fill:#000000;}
*[layerid="51"] {stroke:#000000;fill:#000000;}
*[layerid="52"] {stroke:#000000;fill:#000000;}
*[layerid="99"] {stroke:#000000;fill:#000000;}
*[layerid="100"] {stroke:#000000;fill:#000000;}
*[layerid="101"] {stroke:#000000;fill:#000000;}
*[layerid="Hole"] {stroke:#000000;fill:#000000;}
*[layerid="DRCError"] {stroke:#000000;fill:#000000;}
*[fill="none"] {fill: none;}
*[stroke="none"] {stroke: none;}
path, polyline, polygon, line {stroke-linecap:round;}
g[c_partid="part_pad"][layerid="1"] ellipse:not([c_etype="pad_outer"]) {fill:#000000;}
g[c_partid="part_pad"][layerid="1"] polygon:not([c_etype="pad_outer"]) {fill:#000000;}
g[c_partid="part_pad"][layerid="1"] polyline:not([c_etype="pad_outer"]) {stroke:#000000;}
g[c_partid="part_pad"][layerid="2"] ellipse:not([c_etype="pad_outer"]) {fill:#000000;}
g[c_partid="part_pad"][layerid="2"] polygon:not([c_etype="pad_outer"]) {fill:#000000;}
g[c_partid="part_pad"][layerid="2"] polyline:not([c_etype="pad_outer"]) {stroke:#000000;}
g[c_partid="part_pad"][layerid="11"] ellipse:not([c_etype="pad_outer"]) {fill:#000000;}
g[c_partid="part_pad"][layerid="11"] polygon:not([c_etype="pad_outer"]) {fill:#000000;}
g[c_partid="part_pad"][layerid="11"] polyline:not([c_etype="pad_outer"]) {stroke:#000000;}
g[c_partid="part_pad"][layerid="11"] circle {fill:#FFFFFF;}
g[c_partid="part_pad"][layerid="11"] > polyline:nth-of-type(2) {stroke:#FFFFFF;}
g[c_partid="part_pad"][layerid="11"][c_shape="ELLIPSE"]  polyline:nth-last-of-type(1) {stroke:#FFFFFF;}
g[c_partid="part_pad"][layerid="11"][c_shape="RECT"]  polyline:nth-last-of-type(1) {stroke:#FFFFFF;}
g[c_partid="part_pad"][layerid="11"][c_shape="POLYGON"]  polyline:nth-last-of-type(1) {stroke:#FFFFFF;}
g[c_partid="part_via"] > * + circle, #gCurParts g[c_partid="part_via"] > * + circle {fill:#FFFFFF;}
g[c_partid="part_pad"] > polygon[c_etype="pad_outer"], #gCurParts g[c_partid="part_pad"] > polygon[c_etype="pad_outer"] {stroke-linejoin: round;stroke-miterlimit: 100;}
g[c_partid="part_hole"] > circle {fill: #FFFFFF;}path, polyline, polygon {stroke-linejoin:round;}
rect, circle, ellipse, polyline, line, polygon, path {shape-rendering:crispEdges;}
</style>
<rect x="4012" y="3295.5" width="207" height="117.5" fill="#FFFFFF" stroke="none"/><path d="M 4071.94131 3309.20214 L 4071.1931 3309.09116 4070.4252 3309.05343 4069.6573 3309.09116 4069.11902 3309.171 4068.99517 3309.16999 4068.87757 3309.13114 4068.77748 3309.05818 4067.92216 3308.20285 4067.83545 3308.07308 4067.805 3307.92 4067.83545 3307.76693 4067.92216 3307.63716 4068.05193 3307.55045 4068.205 3307.52 4073.36694 3307.52 4073.53782 3307.55834 4073.67594 3307.66599 4073.75483 3307.82233 4073.75939 3307.99739 4073.68872 3308.15761 4073.29884 3308.6856 4073.15943 3308.90468 4073.07526 3308.99951 4072.96565 3309.06324 4072.8069 3309.09116 4072.05869 3309.20214 4071.94131 3309.20214 Z " stroke-width="0" layerid="1" attachedcopperid="gge9439" c_shapetype="line" id="gge9439_0" class=""></path><path d="M 4024.40642 3310.18609 L 4024.25828 3310.15132 4024.13384 3310.06374 4024.05112 3309.93602 4024.02208 3309.78665 4024.0209 3307.92026 4024.05127 3307.76711 4024.13797 3307.63725 4024.26777 3307.55048 4024.4209 3307.52001 4038.795 3307.52001 4038.94807 3307.55045 4039.07784 3307.63716 4039.16455 3307.76693 4039.195 3307.92001 4039.16455 3308.07308 4039.07784 3308.20285 4037.67649 3309.6042 4037.55574 3309.68704 4037.38143 3309.72244 4036.70691 3309.8225 4036.4995 3309.86209 4036.29209 3309.8225 4035.61757 3309.72244 4034.92668 3309.6885 4027.07232 3309.6885 4026.38143 3309.72244 4025.70691 3309.8225 4025.04545 3309.98818 4024.55683 3310.16301 4024.40642 3310.18609 Z " stroke-width="0" layerid="1" attachedcopperid="gge9439" c_shapetype="line" id="gge9439_1" class=""></path><path d="M 4024.5894 3332.64825 L 4024.43637 3332.67872 4024.28333 3332.64832 4024.15356 3332.56168 4024.06682 3332.43198 4024.03629 3332.27897 4024.03372 3328.21742 4024.06261 3328.06792 4024.14528 3327.94004 4024.26974 3327.85233 4024.41797 3327.81748 4024.56848 3327.84055 4025.04545 3328.01122 4025.70691 3328.1769 4026.38143 3328.27696 4027.07232 3328.3109 4027.9259 3328.3109 4028.07898 3328.34135 4028.24785 3328.46716 4028.33456 3328.59693 4028.365 3328.75 4028.33456 3328.90307 4028.24785 3329.03284 4024.71913 3332.56156 4024.5894 3332.64825 Z " stroke-width="0" layerid="1" attachedcopperid="gge9439" c_shapetype="line" id="gge9439_2" class=""></path><path d="M 4065.64211 3343.70214 L 4065.25149 3343.6442 4065.09342 3343.58471 4064.974 3343.46529 4064.91451 3343.30722 4064.84786 3342.85789 4064.84786 3342.74051 4064.95884 3341.9923 4064.99657 3341.2244 4064.95884 3340.4565 4064.84786 3339.70829 4064.84786 3339.59091 4064.95884 3338.8427 4064.96253 3338.76773 4064.87564 3338.76773 4064.71654 3338.73472 4064.5837 3338.64116 4064.49902 3338.50248 4064.39421 3338.20956 4064.37083 3338.0748 4064.39421 3337.94004 4064.49902 3337.64712 4064.5837 3337.50844 4064.71654 3337.41488 4064.87564 3337.38187 4064.96253 3337.38187 4064.95884 3337.3069 4064.91605 3337.01844 4064.92755 3336.84834 4065.00884 3336.69848 4065.14515 3336.59608 4065.31173 3336.55975 4069.22553 3336.55975 4069.3786 3336.5902 4069.50837 3336.6769 4070.21555 3337.38406 4070.34714 3337.51255 4070.78146 3337.89803 4070.91724 3338.00745 4071.38624 3338.3499 4071.53181 3338.44592 4072.03123 3338.74223 4072.18528 3338.82398 4072.7106 3339.07148 4072.87172 3339.13821 4073.41819 3339.33466 4073.58492 3339.38578 4074.14759 3339.52939 4074.31843 3339.56442 4074.8922 3339.6539 4075.0656 3339.67254 4075.64528 3339.70706 4075.82918 3339.70925 4078.68829 3339.70925 4078.85486 3339.74558 4078.99117 3339.84798 4079.07246 3339.99784 4079.08396 3340.16794 4079.04116 3340.4565 4079.03747 3340.53147 4079.12436 3340.53147 4079.28346 3340.56448 4079.4163 3340.65804 4079.50098 3340.79672 4079.60579 3341.08964 4079.62917 3341.2244 4079.60579 3341.35916 4079.50098 3341.65208 4079.4163 3341.79076 4079.28346 3341.88432 4079.12436 3341.91733 4079.03747 3341.91733 4079.04116 3341.9923 4079.15214 3342.74051 4079.15214 3342.85789 4079.08549 3343.30722 4079.026 3343.46529 4078.90658 3343.58471 4078.74851 3343.6442 4078.35789 3343.70214 4078.24051 3343.70214 4077.4923 3343.59116 4076.7244 3343.55343 4075.9565 3343.59116 4075.20829 3343.70214 4075.09091 3343.70214 4074.3427 3343.59116 4073.5748 3343.55343 4072.8069 3343.59116 4072.05869 3343.70214 4071.94131 3343.70214 4071.1931 3343.59116 4070.4252 3343.55343 4069.6573 3343.59116 4068.90909 3343.70214 4068.79171 3343.70214 4068.0435 3343.59116 4067.2756 3343.55343 4066.5077 3343.59116 4065.75949 3343.70214 4065.64211 3343.70214 Z " stroke-width="0" layerid="1" attachedcopperid="gge9439" c_shapetype="line" id="gge9439_3" class=""></path><path d="M 4164.98445 3376.76917 L 4163.65549 3376.78869 4162.3278 3376.72716 4161.00634 3376.58481 4159.69601 3376.36215 4158.4017 3376.06003 4157.12821 3375.67956 4155.88028 3375.22217 4154.66256 3374.68954 4153.47957 3374.08367 4152.33573 3373.40681 4151.23527 3372.66147 4150.1823 3371.85043 4149.18073 3370.97671 4148.23429 3370.04355 4147.3465 3369.05443 4146.52066 3368.01302 4145.75985 3366.92321 4145.06689 3365.78904 4144.44437 3364.61473 4143.89459 3363.40466 4143.4196 3362.16332 4143.02118 3360.89533 4142.7008 3359.60541 4142.45965 3358.29836 4142.29863 3356.97904 4142.21835 3355.65236 4142.21909 3354.32325 4142.30086 3352.99666 4142.46336 3351.67752 4142.70597 3350.37074 4143.02779 3349.08118 4143.42764 3347.81364 4143.90401 3346.57284 4144.45514 3345.36338 4145.07898 3344.18977 4145.77321 3343.05638 4146.53524 3341.96742 4147.36225 3340.92694 4148.25114 3339.93881 4149.19863 3339.00671 4150.20117 3338.13411 4151.25505 3337.32425 4152.35634 3336.58015 4153.50095 3335.90456 4154.68461 3335.30002 4155.90292 3334.76876 4157.15136 3334.31276 4158.42528 3333.93372 4159.71993 3333.63304 4161.03051 3333.41186 4162.35213 3333.27098 4163.67988 3333.21093 4165.00882 3333.23195 4166.33402 3333.33394 4167.65052 3333.51653 4168.95345 3333.77904 4170.23795 3334.12049 4171.49925 3334.53962 4172.73264 3335.03486 4173.93355 3335.60437 4175.09751 3336.24604 4176.22019 3336.95747 4177.2974 3337.73602 4178.32515 3338.57879 4179.2996 3339.48266 4180.21715 3340.44424 4181.07436 3341.45998 4181.86805 3342.52609 4182.59528 3343.63859 4183.25333 3344.79337 4183.83975 3345.98611 4184.35237 3347.21239 4184.78928 3348.46764 4185.14885 3349.74718 4185.42974 3351.04627 4185.63092 3352.36007 4185.75162 3353.68368 4185.79141 3355.0122 4185.75014 3356.34067 4185.62795 3357.66415 4185.4253 3358.97772 4185.14295 3360.27649 4184.78195 3361.55564 4184.34364 3362.81039 4183.82965 3364.03609 4183.24189 3365.22818 4182.58255 3366.38222 4181.85408 3367.49391 4181.05919 3368.55913 4180.20084 3369.5739 4179.28222 3370.53446 4178.30675 3371.43723 4177.27806 3372.27886 4176.19998 3373.0562 4175.07651 3373.76637 4173.91183 3374.40674 4172.71029 3374.9749 4171.47633 3375.46876 4170.21457 3375.88648 4168.92969 3376.22649 4167.62647 3376.48755 4166.30976 3376.66866 4164.98445 3376.76917 Z " stroke-width="0" layerid="1" attachedcopperid="gge9439" c_shapetype="line" id="gge9439_4" class=""></path><path d="M 4024.4791 3400.44 L 4024.32609 3400.40958 4024.19635 3400.32293 4024.10962 3400.19325 4024.0791 3400.04025 4024.05753 3365.89353 4024.08981 3365.73586 4024.18162 3365.60367 4024.3181 3365.51837 4024.47715 3365.49376 4025.08857 3365.5238 4034.91143 3365.5238 4035.60232 3365.48986 4036.27684 3365.3898 4036.93783 3365.22423 4037.61434 3364.98034 4037.75 3364.95663 4037.88566 3364.98034 4038.56217 3365.22423 4039.22316 3365.3898 4039.89768 3365.48986 4040.58857 3365.5238 4042.46681 3365.5238 4042.68034 3365.29365 4042.78938 3365.19339 4042.78938 3358.0374 4042.27025 3358.0374 4042.11718 3358.00695 4041.98741 3357.92024 4041.9007 3357.79047 4041.87025 3357.6374 4041.87025 3356.3626 4041.9007 3356.20953 4041.98741 3356.07976 4042.11718 3355.99305 4042.27025 3355.9626 4042.78938 3355.9626 4042.78938 3351.0797 4042.32125 3351.0797 4042.16818 3351.04925 4042.03841 3350.96254 4041.9517 3350.83277 4041.92125 3350.6797 4041.92125 3342.5695 4041.9517 3342.41643 4042.03841 3342.28666 4042.16818 3342.19995 4042.32125 3342.1695 4044.3224 3342.1695 4044.46177 3342.19456 4044.58367 3342.26662 4044.67283 3342.37663 4044.71807 3342.51081 4044.75214 3342.74051 4044.75214 3342.85789 4044.64116 3343.6061 4044.60343 3344.374 4044.64116 3345.1419 4044.75214 3345.89011 4044.75214 3346.00749 4044.64116 3346.7557 4044.60343 3347.5236 4044.64116 3348.2915 4044.75397 3349.05201 4044.94075 3349.79767 4045.20198 3350.52633 4045.5285 3351.2167 4045.92376 3351.87614 4046.38175 3352.49367 4046.89807 3353.06333 4047.46773 3353.57965 4048.0489 3354.01068 4048.13576 3354.09897 4048.19145 3354.2096 4048.21063 3354.33196 4048.21063 3355.9626 4048.47062 3355.9626 4048.63271 3355.99692 4048.767 3356.09398 4048.85043 3356.23713 4048.86869 3356.40181 4048.81865 3356.55976 4048.70889 3356.68388 4048.40641 3356.90822 4047.90116 3357.36616 4047.44322 3357.87141 4047.03702 3358.41911 4046.68645 3359.00399 4046.39491 3359.62042 4046.16518 3360.26245 4045.9995 3360.92391 4045.89944 3361.59843 4045.8655 3362.28932 4045.8655 3366.99408 4045.89944 3367.68497 4045.9995 3368.35949 4046.16518 3369.02095 4046.39491 3369.66298 4046.68645 3370.27941 4047.03702 3370.86429 4047.44322 3371.41199 4047.90116 3371.91724 4048.40641 3372.37518 4048.95411 3372.78138 4049.53899 3373.13195 4050.15542 3373.42349 4050.79745 3373.65322 4051.45891 3373.8189 4052.13343 3373.91896 4052.82432 3373.9529 4054.28765 3373.9529 4054.44072 3373.98335 4054.61314 3374.11271 4054.7013 3374.02684 4054.8114 3373.97183 4054.933 3373.9529 4058.57 3373.9529 4058.72307 3373.98335 4058.85284 3374.07006 4058.93955 3374.19983 4058.97 3374.3529 4058.97 3378.46957 4060.36938 3379.86895 4060.44935 3379.98337 4060.48513 3380.11832 4060.47236 3380.25734 4060.41259 3380.3835 4060.15471 3380.74395 4059.99985 3380.9272 4067.6375 3380.9272 4067.6375 3380.00592 4067.60356 3379.31503 4067.5035 3378.64051 4067.33782 3377.97905 4067.10809 3377.33702 4066.81655 3376.72059 4066.46598 3376.13571 4066.05978 3375.58801 4065.60184 3375.08276 4065.09659 3374.62482 4064.54889 3374.21862 4063.94715 3373.85795 4063.84359 3373.76862 4063.77618 3373.64962 4063.75279 3373.48514 4063.77618 3373.35038 4063.84359 3373.23138 4063.94715 3373.14205 4064.54889 3372.78138 4065.09659 3372.37518 4065.60314 3371.91607 4065.87409 3371.62232 4065.99628 3371.53231 4066.14321 3371.49429 4066.29372 3371.51375 4066.42616 3371.58788 4066.52144 3371.70601 4066.60883 3371.87068 4066.90508 3372.36999 4067.00118 3372.51567 4067.34355 3372.98455 4067.45305 3373.12044 4067.83845 3373.55466 4067.96703 3373.68634 4073.38866 3379.10797 4073.52034 3379.23655 4073.95456 3379.62195 4074.09045 3379.73145 4074.55933 3380.07382 4074.70501 3380.16992 4075.20432 3380.46617 4075.35848 3380.54798 4075.88369 3380.79543 4076.04492 3380.86221 4076.59127 3381.05862 4076.75842 3381.10987 4077.05641 3381.18265 4077.21404 3381.26103 4077.32276 3381.3995 4077.3615 3381.57123 4077.3615 3384.71068 4077.39544 3385.40157 4077.4955 3386.07609 4077.66118 3386.73755 4077.89091 3387.37958 4078.18245 3387.99601 4078.53302 3388.58089 4078.93922 3389.12859 4079.39716 3389.63384 4079.90241 3390.09178 4080.45011 3390.49798 4081.03499 3390.84855 4081.65142 3391.14009 4082.29345 3391.36982 4082.95491 3391.5355 4083.62943 3391.63556 4084.32032 3391.6695 4092.17468 3391.6695 4092.86557 3391.63556 4093.54009 3391.5355 4094.20155 3391.36982 4094.84358 3391.14009 4095.46001 3390.84855 4096.04489 3390.49798 4096.59259 3390.09178 4097.09784 3389.63384 4097.55578 3389.12859 4097.96198 3388.58089 4098.31255 3387.99601 4098.60409 3387.37958 4098.83382 3386.73755 4098.9995 3386.07609 4099.09956 3385.40157 4099.1335 3384.71068 4099.1335 3381.68892 4099.15705 3381.55371 4099.22491 3381.43442 4099.32911 3381.34508 4099.45737 3381.29623 4099.68142 3381.2528 4100.24188 3381.10978 4100.40873 3381.05862 4100.95508 3380.86221 4101.11631 3380.79543 4101.64152 3380.54798 4101.79568 3380.46617 4102.29499 3380.16992 4102.44067 3380.07382 4102.90955 3379.73145 4103.04544 3379.62195 4103.47966 3379.23655 4103.61134 3379.10797 4105.10797 3377.61134 4105.23655 3377.47966 4105.62195 3377.04544 4105.73145 3376.90955 4106.07382 3376.44067 4106.16992 3376.29499 4106.46617 3375.79568 4106.54798 3375.64152 4106.79543 3375.11631 4106.86221 3374.95508 4107.05862 3374.40873 4107.10978 3374.24188 4107.25336 3373.67933 4107.28842 3373.50837 4107.37788 3372.93472 4107.39654 3372.7612 4107.43106 3372.18165 4107.43325 3371.99762 4107.43325 3363.2115 4107.4637 3363.05843 4107.55041 3362.92866 4107.68018 3362.84195 4107.83325 3362.8115 4107.92768 3362.8115 4108.61857 3362.77756 4109.29309 3362.6775 4109.95455 3362.51182 4110.59658 3362.28209 4111.21301 3361.99055 4111.79789 3361.63998 4112.34559 3361.23378 4112.85084 3360.77584 4113.30878 3360.27059 4113.71498 3359.72289 4114.06555 3359.13801 4114.35709 3358.52158 4114.58682 3357.87955 4114.7525 3357.21809 4114.85256 3356.54357 4114.8865 3355.85268 4114.8865 3354.9314 4106.219 3354.9314 4106.219 3357.07667 4106.1869 3357.23367 4106.09576 3357.36547 4105.9602 3357.45092 4105.80198 3357.47631 4105.64649 3357.43756 4105.51869 3357.34089 4105.23761 3357.02142 4105.10797 3356.88866 4104.00366 3355.78435 4103.91695 3355.65458 4103.8865 3355.5015 4103.8865 3351.14792 4103.85256 3350.45703 4103.7525 3349.78251 4103.58682 3349.12105 4103.35709 3348.47902 4103.06555 3347.86259 4102.71498 3347.27771 4102.30878 3346.73001 4101.88562 3346.26313 4101.8088 3346.13846 4101.782 3345.9945 4101.782 3344.1891 4100.07332 3344.1891 4099.78865 3344.20308 4099.63632 3344.18091 4099.50365 3344.10286 4099.41027 3343.98047 4099.37003 3343.83189 4099.34847 3343.52825 4099.37273 3343.36004 4099.46463 3343.21708 4101.17487 3341.50684 4101.30345 3341.37516 4101.68885 3340.94094 4101.79835 3340.80505 4102.14072 3340.33617 4102.23682 3340.19049 4102.53307 3339.69118 4102.61488 3339.53702 4102.86233 3339.01181 4102.92911 3338.85058 4103.12552 3338.30423 4103.17668 3338.13738 4103.31925 3337.57858 4103.33978 3337.46762 4103.37908 3337.3542 4103.45026 3337.25755 4107.81716 3332.89065 4107.94693 3332.80394 4108.1 3332.7735 4108.25307 3332.80394 4108.38284 3332.89065 4108.46955 3333.02042 4108.5 3333.1735 4108.5 3334.54918 4108.53394 3335.24007 4108.634 3335.91459 4108.79968 3336.57605 4109.02941 3337.21808 4109.32095 3337.83451 4109.67152 3338.41939 4110.07772 3338.96709 4110.53566 3339.47234 4111.04091 3339.93028 4111.58861 3340.33648 4112.17349 3340.68705 4112.78992 3340.97859 4113.43195 3341.20832 4114.09341 3341.374 4114.76793 3341.47406 4115.45882 3341.508 4121.54218 3341.508 4122.23307 3341.47406 4122.90759 3341.374 4123.56905 3341.20832 4124.21108 3340.97859 4124.82751 3340.68705 4125.41239 3340.33648 4125.96009 3339.93028 4126.46534 3339.47234 4126.92328 3338.96709 4127.32948 3338.41939 4127.68005 3337.83451 4127.97159 3337.21808 4128.20132 3336.57605 4128.367 3335.91459 4128.46706 3335.24007 4128.501 3334.54918 4128.501 3333.384 4128.53145 3333.23092 4128.61816 3333.10115 4133.90692 3327.81239 4134.04792 3327.68277 4134.15611 3327.638 4134.71595 3327.49777 4135.35798 3327.26804 4135.97441 3326.9765 4136.55929 3326.62593 4137.10699 3326.21973 4137.61224 3325.76179 4138.07018 3325.25654 4138.47638 3324.70884 4138.82695 3324.12396 4139.11849 3323.50753 4139.34822 3322.8655 4139.5139 3322.20404 4139.61396 3321.52952 4139.6479 3320.83863 4139.6479 3314.16137 4139.61396 3313.47048 4139.5139 3312.79596 4139.34822 3312.1345 4139.11849 3311.49247 4138.82695 3310.87604 4138.47638 3310.29116 4138.07018 3309.74346 4137.61224 3309.23821 4137.10699 3308.78027 4136.55929 3308.37407 4136.37414 3308.26309 4136.24902 3308.14494 4136.18512 3307.98516 4136.19427 3307.81332 4136.27477 3307.66122 4136.41172 3307.55702 4136.57978 3307.52 4207.08 3307.52 4207.23307 3307.55045 4207.36284 3307.63716 4207.44955 3307.76693 4207.48 3307.92 4207.48 3400.04 4207.44955 3400.19307 4207.36284 3400.32284 4207.23307 3400.40955 4207.08 3400.44 4024.4791 3400.44 Z M 4164.42725 3392.26185 L 4166.13513 3392.20308 4167.83852 3392.06607 4169.53384 3391.85111 4171.21751 3391.55865 4172.88601 3391.18931 4174.53583 3390.74387 4176.16348 3390.22325 4177.76556 3389.62856 4179.33869 3388.96104 4180.87956 3388.22211 4182.38493 3387.4133 4183.85163 3386.53633 4185.27659 3385.59304 4186.65681 3384.58541 4187.98937 3383.51557 4189.27149 3382.38575 4190.50046 3381.19834 4191.6737 3379.95584 4192.78874 3378.66085 4193.84324 3377.31611 4194.83498 3375.92443 4195.76187 3374.48875 4196.62196 3373.01209 4197.41345 3371.49754 4198.13467 3369.9483 4198.78411 3368.36762 4199.36039 3366.75884 4199.86231 3365.12532 4200.28882 3363.47051 4200.639 3361.79788 4200.91214 3360.11096 4201.10764 3358.41329 4201.22511 3356.70844 4201.26429 3355 4201.22511 3353.29156 4201.10764 3351.58671 4200.91214 3349.88904 4200.639 3348.20212 4200.28882 3346.52949 4199.86231 3344.87468 4199.36039 3343.24116 4198.78411 3341.63238 4198.13467 3340.0517 4197.41345 3338.50246 4196.62196 3336.98791 4195.76187 3335.51125 4194.83498 3334.07557 4193.84324 3332.68389 4192.78874 3331.33915 4191.6737 3330.04416 4190.50046 3328.80166 4189.27149 3327.61425 4187.98937 3326.48443 4186.65681 3325.41459 4185.27659 3324.40696 4183.85163 3323.46367 4182.38493 3322.5867 4180.87956 3321.77789 4179.33869 3321.03896 4177.76556 3320.37144 4176.16348 3319.77675 4174.53583 3319.25613 4172.88601 3318.81069 4171.21751 3318.44135 4169.53384 3318.14889 4167.83852 3317.93393 4166.13513 3317.79692 4164.42725 3317.73815 4162.71847 3317.75775 4161.01239 3317.85566 4159.31259 3318.03169 4157.62265 3318.28547 4155.94612 3318.61645 4154.28652 3319.02395 4152.64736 3319.50711 4151.03207 3320.06491 4149.44405 3320.69618 4147.88664 3321.39959 4146.36312 3322.17367 4144.87669 3323.01677 4143.43048 3323.92714 4142.02752 3324.90286 4140.67078 3325.94187 4139.36309 3327.04199 4138.10722 3328.20091 4136.9058 3329.41618 4135.76135 3330.68526 4134.6763 3332.00547 4133.65291 3333.37404 4132.69335 3334.78809 4131.79962 3336.24465 4130.97361 3337.74065 4130.21705 3339.27294 4129.53155 3340.83831 4128.91852 3342.43347 4128.37928 3344.05505 4127.91495 3345.69964 4127.5265 3347.3638 4127.21476 3349.04401 4126.98038 3350.73676 4126.82385 3352.43846 4126.7455 3354.14555 4126.7455 3355.85445 4126.82385 3357.56154 4126.98038 3359.26324 4127.21476 3360.95599 4127.5265 3362.6362 4127.91495 3364.30036 4128.37928 3365.94495 4128.91852 3367.56653 4129.53155 3369.16169 4130.21705 3370.72706 4130.97361 3372.25935 4131.79962 3373.75535 4132.69335 3375.21191 4133.65291 3376.62596 4134.6763 3377.99453 4135.76135 3379.31474 4136.9058 3380.58382 4138.10722 3381.79909 4139.36309 3382.95801 4140.67078 3384.05813 4142.02752 3385.09714 4143.43048 3386.07286 4144.87669 3386.98323 4146.36312 3387.82633 4147.88664 3388.60041 4149.44405 3389.30382 4151.03207 3389.93509 4152.64736 3390.49289 4154.28652 3390.97605 4155.94612 3391.38355 4157.62265 3391.71453 4159.31259 3391.96831 4161.01239 3392.14434 4162.71847 3392.24225 4164.42725 3392.26185 Z M 4041.67987 3379.30476 L 4041.83279 3379.52978 4047.79407 3373.5685 4041.83385 3367.60828 4041.56176 3368.02725 4041.13095 3368.83073 4040.76887 3369.66743 4040.47808 3370.5315 4040.26061 3371.41687 4040.11799 3372.31733 4040.05122 3373.22657 4040.06077 3374.13821 4040.14657 3375.04585 4040.30801 3375.94313 4040.54397 3376.82375 4040.8528 3377.68154 4041.23232 3378.51048 4041.67987 3379.30476 Z M 4052.13343 3391.63556 L 4052.82432 3391.6695 4054.533 3391.6695 4054.533 3383.7894 4045.8655 3383.7894 4045.8655 3384.71068 4045.89944 3385.40157 4045.9995 3386.07609 4046.16518 3386.73755 4046.39491 3387.37958 4046.68645 3387.99601 4047.03702 3388.58089 4047.44322 3389.12859 4047.90116 3389.63384 4048.40641 3390.09178 4048.95411 3390.49798 4049.53899 3390.84855 4050.15542 3391.14009 4050.79745 3391.36982 4051.45891 3391.5355 4052.13343 3391.63556 Z M 4060.67868 3391.6695 L 4061.36957 3391.63556 4062.04409 3391.5355 4062.70555 3391.36982 4063.34758 3391.14009 4063.96401 3390.84855 4064.54889 3390.49798 4065.09659 3390.09178 4065.60184 3389.63384 4066.05978 3389.12859 4066.46598 3388.58089 4066.81655 3387.99601 4067.10809 3387.37958 4067.33782 3386.73755 4067.5035 3386.07609 4067.60356 3385.40157 4067.6375 3384.71068 4067.6375 3383.7894 4058.97 3383.7894 4058.97 3391.6695 4060.67868 3391.6695 Z M 4114.8865 3352.0692 L 4114.8865 3351.14792 4114.85256 3350.45703 4114.7525 3349.78251 4114.58682 3349.12105 4114.35709 3348.47902 4114.06555 3347.86259 4113.71498 3347.27771 4113.30878 3346.73001 4112.85084 3346.22476 4112.34559 3345.76682 4111.79789 3345.36062 4111.21301 3345.01005 4110.59658 3344.71851 4109.95455 3344.48878 4109.29309 3344.3231 4108.61857 3344.22304 4107.92768 3344.1891 4106.219 3344.1891 4106.219 3352.0692 4114.8865 3352.0692 Z M 4054.533 3380.9272 L 4054.533 3380.30743 4050.9315 3376.70593 4046.71023 3380.9272 4054.533 3380.9272 Z M 4044.96888 3382.66855 L 4045.0655 3382.72845 4045.0655 3382.57193 4044.96888 3382.66855 Z " stroke-width="0" layerid="1" attachedcopperid="gge9439" c_shapetype="line" id="gge9439_5" class=""></path><polyline points="4073.575 3353.75 4073.575 3368.075 4079 3373.5 4098 3373.5 4099.5 3372 4099.5 3362.5 4093 3356 4093 3353.5" stroke-width="1.9685"  stroke-linecap="round" fill="none" layerid="1" net="RESET" id="gge9436" locked="0" /><polyline points="4104 3353.5 4104 3347.5 4097.77 3341.27 4096.53 3341.27" stroke-width="1.9685"  stroke-linecap="round" fill="none" layerid="1" net="GND" id="gge9312" locked="0" /><polyline points="4127.07 3341.27 4089.2 3341.27" stroke-width="1.9685"  stroke-linecap="round" fill="none" layerid="1" net="GND" id="gge8068" locked="0" /><polyline points="4083.02 3353.75 4083.02 3355.02 4088.25 3360.25 4088.25 3364.64" stroke-width="1.9685"  stroke-linecap="round" fill="none" layerid="1" net="U1_32" id="gge9321" locked="0" /><polyline points="4042 3319 4042 3316.5 4045 3313.5 4062 3313.5 4064.126 3315.626 4064.126 3319.25" stroke-width="1.9685"  stroke-linecap="round" fill="none" layerid="1" net="MOSI" id="gge9144" locked="0" /><polyline points="4053 3319 4053.25 3319.25 4060.976 3319.25" stroke-width="1.9685"  stroke-linecap="round" fill="none" layerid="1" net="MISO" id="gge9141" locked="0" /><polyline points="4031 3319 4031 3320 4036.4761 3325.4761 4054.8 3325.4761" stroke-width="1.9685"  stroke-linecap="round" fill="none" layerid="1" net="SCK" id="gge9129" locked="0" /><polyline points="4050.932 3373.569 4056.752 3379.389 4056.752 3382.358" stroke-width="1.9685"  stroke-linecap="round" fill="none" layerid="1" net="GND" id="gge8865" locked="0" /><polyline points="4045.5 3357 4045.5 3372.5 4046.569 3373.569 4050.932 3373.569" stroke-width="1.9685"  stroke-linecap="round" fill="none" layerid="1" net="GND" id="gge8862" locked="0" /><polyline points="4043.5 3340.555 4043.5 3350.5 4045.5 3352.5 4045.5 3357" stroke-width="1.9685"  stroke-linecap="round" fill="none" layerid="1" net="GND" id="gge8859" locked="0" /><polyline points="4054.8 3338.075 4050.425 3338.075 4047.945 3340.555 4043.5 3340.555" stroke-width="1.9685"  stroke-linecap="round" fill="none" layerid="1" net="GND" id="gge8856" locked="0" /><polyline points="4118.5 3332 4128.304 3322.196 4128.304 3317.5" stroke-width="1.9685"  stroke-linecap="round" fill="none" layerid="1" net="R1_1" id="gge7854" locked="0" /><polyline points="4095.5671 3333.9214 4107.5 3321.9885 4107.5 3317" stroke-width="1.9685"  stroke-linecap="round" fill="none" layerid="1" net="+5V" id="gge2131" locked="0" /><polyline points="4089.2 3338.075 4093.3874 3338.075 4095.5669 3335.8955 4095.5669 3333.9214 4093.4219 3331.7764 4091.2002 3331.7764" stroke-width="1.9685"  stroke-linecap="round" fill="none" layerid="1" net="+5V" id="gge1912" locked="0" /><polyline points="4089.2 3331.776 4075.8268 3331.776 4072.6772 3328.6265 4056.8 3328.6265" stroke-width="1.9685"  stroke-linecap="round" fill="none" layerid="1" net="+5V" id="gge1909" locked="0" /><polyline points="4043.5001 3332.4454 4047.2591 3332.4454" stroke-width="1.9685"  stroke-linecap="round" fill="none" layerid="1" net="+5V" id="gge1906" locked="0" /><polyline points="4054.8 3328.626 4051.9717 3328.626 4051.9712 3328.6265" stroke-width="1.9685"  stroke-linecap="round" fill="none" layerid="1" net="+5V" id="gge1903" locked="0" /><polyline points="4051.9711 3328.6264 4051.0781 3328.6264 4047.2591 3332.4454" stroke-width="1.9685"  stroke-linecap="round" fill="none" layerid="1" net="+5V" id="gge1900" locked="0" /><polyline points="4056.8 3338.075 4081.4248 3338.075 4084.5748 3334.925 4089.2 3334.925" stroke-width="1.9685"  stroke-linecap="round" fill="none" layerid="1" net="GND" id="gge8056" locked="0" /><polyline points="4081.42 3338.07 4084.57 3341.22 4087.22 3341.22" stroke-width="1.9685"  stroke-linecap="round" fill="none" layerid="1" net="GND" id="gge8059" locked="0" /><polyline points="4079.87 3319.25 4079.87 3313.13 4082.5 3310.5 4117.5 3310.5 4120.7 3313.7 4120.7 3317.5" stroke-width="1.9685"  stroke-linecap="round" fill="none" layerid="1" net="U1_10" id="gge2137" locked="0" /><polyline points="4043.5 3332.45 4036 3332.5 4030 3338.5 4030 3357" stroke-width="1.9685"  stroke-linecap="round" fill="none" layerid="1" net="+5V" id="gge8582" locked="0" /><g c_partid="part_pad" c_etype="pinpart" c_origin="4118.5,3332" layerid="1" number="2" net="R1_1" plated ="Y"  id="gge7815" locked="0" c_rotation="90" c_width="6.103" c_height="5.1179" title="R1_1" c_shape="POLYGON" pasteexpansion="0" solderexpansion="0.4"><polygon  c_etype="pad_shell" points="4115.449 3334.559 4115.449 3329.441 4121.552 3329.441 4121.552 3334.559" layerid="1" stroke-width="0" /><circle c_etype="pad_hole" cx="4118.5" cy="3332" r="0" layerid="1" stroke-width="0"/></g><g c_partid="part_pad" c_etype="pinpart" c_origin="4053,3319" layerid="1" number="6" net="MISO" plated ="Y"  id="gge9027" locked="0" c_rotation="90" c_width="4.7244" c_height="7.874" title="MISO" c_shape="RECT" pasteexpansion="0" solderexpansion="0.2"><polygon  c_etype="pad_shell" points="4049.063 3321.3622 4049.063 3316.6378 4056.937 3316.6378 4056.937 3321.3622" layerid="1" stroke-width="0" /><circle c_etype="pad_hole" cx="4052.9995" cy="3318.9997" r="0" layerid="1" stroke-width="0"/></g><g c_partid="part_pad" c_etype="pinpart" c_origin="4042,3319" layerid="1" number="7" net="MOSI" plated ="Y"  id="gge9057" locked="0" c_rotation="90" c_width="4.7244" c_height="7.874" title="MOSI" c_shape="RECT" pasteexpansion="0" solderexpansion="0.2"><polygon  c_etype="pad_shell" points="4038.063 3321.3622 4038.063 3316.6378 4045.937 3316.6378 4045.937 3321.3622" layerid="1" stroke-width="0" /><circle c_etype="pad_hole" cx="4041.9995" cy="3318.9997" r="0" layerid="1" stroke-width="0"/></g><g c_partid="part_pad" c_etype="pinpart" c_origin="4031,3319" layerid="1" number="8" net="SCK" plated ="Y"  id="gge9087" locked="0" c_rotation="90" c_width="4.7244" c_height="7.874" title="SCK" c_shape="RECT" pasteexpansion="0" solderexpansion="0.2"><polygon  c_etype="pad_shell" points="4027.063 3321.3622 4027.063 3316.6378 4034.937 3316.6378 4034.937 3321.3622" layerid="1" stroke-width="0" /><circle c_etype="pad_hole" cx="4030.9995" cy="3318.9997" r="0" layerid="1" stroke-width="0"/></g><g c_partid="part_pad" c_etype="pinpart" c_origin="4093,3353.5" layerid="1" number="10" net="RESET" plated ="Y"  id="gge9246" locked="0" c_rotation="270" c_width="4.7244" c_height="7.874" title="RESET" c_shape="RECT" pasteexpansion="0" solderexpansion="0.2"><polygon  c_etype="pad_shell" points="4096.937 3351.1378 4096.937 3355.8622 4089.063 3355.8622 4089.063 3351.1378" layerid="1" stroke-width="0" /><circle c_etype="pad_hole" cx="4093.0005" cy="3353.5003" r="0" layerid="1" stroke-width="0"/></g><g c_partid="part_pad" c_etype="pinpart" c_origin="4104,3353.5" layerid="1" number="11" net="GND" plated ="Y"  id="gge9276" locked="0" c_rotation="270" c_width="4.7244" c_height="7.874" title="GND" c_shape="RECT" pasteexpansion="0" solderexpansion="0.2"><polygon  c_etype="pad_shell" points="4107.937 3351.1378 4107.937 3355.8622 4100.063 3355.8622 4100.063 3351.1378" layerid="1" stroke-width="0" /><circle c_etype="pad_hole" cx="4104.0005" cy="3353.5003" r="0" layerid="1" stroke-width="0"/></g><g c_partid="part_pad" c_etype="pinpart" c_origin="4043.5,3332.445" layerid="1" number="2" net="+5V" plated ="Y"  id="gge147" locked="0" c_rotation="90" c_width="5.5512" c_height="5.315" title="+5V" c_shape="RECT" pasteexpansion="-393.7008" solderexpansion="0.2000"><polygon  c_etype="pad_shell" points="4046.1575 3335.2205 4040.8425 3335.2205 4040.8425 3329.6693 4046.1575 3329.6693" layerid="1" stroke-width="0" /><circle c_etype="pad_hole" cx="4043.5" cy="3332.4449" r="0" layerid="1" stroke-width="0"/></g><g c_partid="part_pad" c_etype="pinpart" c_origin="4043.5,3340.555" layerid="1" number="1" net="GND" plated ="Y"  id="gge162" locked="0" c_rotation="90" c_width="5.5512" c_height="5.315" title="GND" c_shape="RECT" pasteexpansion="-393.7008" solderexpansion="0.2000"><polygon  c_etype="pad_shell" points="4046.1575 3337.7795 4040.8425 3337.7795 4040.8425 3343.3307 4046.1575 3343.3307" layerid="1" stroke-width="0" /><circle c_etype="pad_hole" cx="4043.5" cy="3340.5551" r="0" layerid="1" stroke-width="0"/></g><g c_partid="part_pad" c_etype="pinpart" c_origin="4083.024,3353.75" layerid="1" number="32" net="U1_32" plated ="Y"  id="gge495" locked="0" c_rotation="180" c_width="1.7717" c_height="6.4961" title="U1_32" c_shape="OVAL" pasteexpansion="0" solderexpansion="0.2"><polyline  c_etype="pad_shell" points="4083.024 3356.1122 4083.024 3351.3878" layerid="1" stroke-width="1.7717" /><circle c_etype="pad_hole" cx="4083.0236" cy="3353.75" r="0" layerid="1" stroke-width="0"/></g><g c_partid="part_pad" c_etype="pinpart" c_origin="4079.874,3353.75" layerid="1" number="31" net="U1_31" plated ="Y"  id="gge510" locked="0" c_rotation="180" c_width="1.7717" c_height="6.4961" title="U1_31" c_shape="OVAL" pasteexpansion="0" solderexpansion="0.2"><polyline  c_etype="pad_shell" points="4079.874 3356.1122 4079.874 3351.3878" layerid="1" stroke-width="1.7717" /><circle c_etype="pad_hole" cx="4079.874" cy="3353.75" r="0" layerid="1" stroke-width="0"/></g><g c_partid="part_pad" c_etype="pinpart" c_origin="4076.724,3353.75" layerid="1" number="30" net="U1_30" plated ="Y"  id="gge525" locked="0" c_rotation="180" c_width="1.7717" c_height="6.4961" title="U1_30" c_shape="OVAL" pasteexpansion="0" solderexpansion="0.2"><polyline  c_etype="pad_shell" points="4076.724 3356.1122 4076.724 3351.3878" layerid="1" stroke-width="1.7717" /><circle c_etype="pad_hole" cx="4076.7244" cy="3353.75" r="0" layerid="1" stroke-width="0"/></g><g c_partid="part_pad" c_etype="pinpart" c_origin="4073.575,3353.75" layerid="1" number="29" net="RESET" plated ="Y"  id="gge540" locked="0" c_rotation="180" c_width="1.7717" c_height="6.4961" title="RESET" c_shape="OVAL" pasteexpansion="0" solderexpansion="0.2"><polyline  c_etype="pad_shell" points="4073.575 3356.1122 4073.575 3351.3878" layerid="1" stroke-width="1.7717" /><circle c_etype="pad_hole" cx="4073.5748" cy="3353.75" r="0" layerid="1" stroke-width="0"/></g><g c_partid="part_pad" c_etype="pinpart" c_origin="4070.425,3353.75" layerid="1" number="28" net="U1_28" plated ="Y"  id="gge555" locked="0" c_rotation="180" c_width="1.7717" c_height="6.4961" title="U1_28" c_shape="OVAL" pasteexpansion="0" solderexpansion="0.2"><polyline  c_etype="pad_shell" points="4070.425 3356.1122 4070.425 3351.3878" layerid="1" stroke-width="1.7717" /><circle c_etype="pad_hole" cx="4070.4252" cy="3353.75" r="0" layerid="1" stroke-width="0"/></g><g c_partid="part_pad" c_etype="pinpart" c_origin="4067.276,3353.75" layerid="1" number="27" net="U1_27" plated ="Y"  id="gge570" locked="0" c_rotation="180" c_width="1.7717" c_height="6.4961" title="U1_27" c_shape="OVAL" pasteexpansion="0" solderexpansion="0.2"><polyline  c_etype="pad_shell" points="4067.276 3356.1122 4067.276 3351.3878" layerid="1" stroke-width="1.7717" /><circle c_etype="pad_hole" cx="4067.2756" cy="3353.75" r="0" layerid="1" stroke-width="0"/></g><g c_partid="part_pad" c_etype="pinpart" c_origin="4064.126,3353.75" layerid="1" number="26" net="U1_26" plated ="Y"  id="gge585" locked="0" c_rotation="180" c_width="1.7717" c_height="6.4961" title="U1_26" c_shape="OVAL" pasteexpansion="0" solderexpansion="0.2"><polyline  c_etype="pad_shell" points="4064.126 3356.1122 4064.126 3351.3878" layerid="1" stroke-width="1.7717" /><circle c_etype="pad_hole" cx="4064.126" cy="3353.75" r="0" layerid="1" stroke-width="0"/></g><g c_partid="part_pad" c_etype="pinpart" c_origin="4060.976,3353.75" layerid="1" number="25" net="U1_25" plated ="Y"  id="gge600" locked="0" c_rotation="180" c_width="1.7717" c_height="6.4961" title="U1_25" c_shape="OVAL" pasteexpansion="0" solderexpansion="0.2"><polyline  c_etype="pad_shell" points="4060.976 3356.1122 4060.976 3351.3878" layerid="1" stroke-width="1.7717" /><circle c_etype="pad_hole" cx="4060.9764" cy="3353.75" r="0" layerid="1" stroke-width="0"/></g><g c_partid="part_pad" c_etype="pinpart" c_origin="4054.8,3347.524" layerid="1" number="24" net="U1_24" plated ="Y"  id="gge615" locked="0" c_rotation="270" c_width="1.7717" c_height="6.4961" title="U1_24" c_shape="OVAL" pasteexpansion="0" solderexpansion="0.2"><polyline  c_etype="pad_shell" points="4057.1622 3347.524 4052.4378 3347.524" layerid="1" stroke-width="1.7717" /><circle c_etype="pad_hole" cx="4054.8" cy="3347.5236" r="0" layerid="1" stroke-width="0"/></g><g c_partid="part_pad" c_etype="pinpart" c_origin="4054.8,3344.374" layerid="1" number="23" net="U1_23" plated ="Y"  id="gge630" locked="0" c_rotation="270" c_width="1.7717" c_height="6.4961" title="U1_23" c_shape="OVAL" pasteexpansion="0" solderexpansion="0.2"><polyline  c_etype="pad_shell" points="4057.1622 3344.374 4052.4378 3344.374" layerid="1" stroke-width="1.7717" /><circle c_etype="pad_hole" cx="4054.8" cy="3344.374" r="0" layerid="1" stroke-width="0"/></g><g c_partid="part_pad" c_etype="pinpart" c_origin="4054.8,3341.224" layerid="1" number="22" net="U1_22" plated ="Y"  id="gge645" locked="0" c_rotation="270" c_width="1.7717" c_height="6.4961" title="U1_22" c_shape="OVAL" pasteexpansion="0" solderexpansion="0.2"><polyline  c_etype="pad_shell" points="4057.1622 3341.224 4052.4378 3341.224" layerid="1" stroke-width="1.7717" /><circle c_etype="pad_hole" cx="4054.8" cy="3341.2244" r="0" layerid="1" stroke-width="0"/></g><g c_partid="part_pad" c_etype="pinpart" c_origin="4054.8,3338.075" layerid="1" number="21" net="GND" plated ="Y"  id="gge660" locked="0" c_rotation="270" c_width="1.7717" c_height="6.4961" title="GND" c_shape="OVAL" pasteexpansion="0" solderexpansion="0.2"><polyline  c_etype="pad_shell" points="4057.1622 3338.075 4052.4378 3338.075" layerid="1" stroke-width="1.7717" /><circle c_etype="pad_hole" cx="4054.8" cy="3338.0748" r="0" layerid="1" stroke-width="0"/></g><g c_partid="part_pad" c_etype="pinpart" c_origin="4054.8,3334.925" layerid="1" number="20" net="U1_20" plated ="Y"  id="gge675" locked="0" c_rotation="270" c_width="1.7717" c_height="6.4961" title="U1_20" c_shape="OVAL" pasteexpansion="0" solderexpansion="0.2"><polyline  c_etype="pad_shell" points="4057.1622 3334.925 4052.4378 3334.925" layerid="1" stroke-width="1.7717" /><circle c_etype="pad_hole" cx="4054.8" cy="3334.9252" r="0" layerid="1" stroke-width="0"/></g><g c_partid="part_pad" c_etype="pinpart" c_origin="4054.8,3331.776" layerid="1" number="19" net="U1_19" plated ="Y"  id="gge690" locked="0" c_rotation="270" c_width="1.7717" c_height="6.4961" title="U1_19" c_shape="OVAL" pasteexpansion="0" solderexpansion="0.2"><polyline  c_etype="pad_shell" points="4057.1622 3331.776 4052.4378 3331.776" layerid="1" stroke-width="1.7717" /><circle c_etype="pad_hole" cx="4054.8" cy="3331.7756" r="0" layerid="1" stroke-width="0"/></g><g c_partid="part_pad" c_etype="pinpart" c_origin="4054.8,3328.626" layerid="1" number="18" net="+5V" plated ="Y"  id="gge705" locked="0" c_rotation="270" c_width="1.7717" c_height="6.4961" title="+5V" c_shape="OVAL" pasteexpansion="0" solderexpansion="0.2"><polyline  c_etype="pad_shell" points="4057.1622 3328.626 4052.4378 3328.626" layerid="1" stroke-width="1.7717" /><circle c_etype="pad_hole" cx="4054.8" cy="3328.626" r="0" layerid="1" stroke-width="0"/></g><g c_partid="part_pad" c_etype="pinpart" c_origin="4054.8,3325.476" layerid="1" number="17" net="SCK" plated ="Y"  id="gge720" locked="0" c_rotation="270" c_width="1.7717" c_height="6.4961" title="SCK" c_shape="OVAL" pasteexpansion="0" solderexpansion="0.2"><polyline  c_etype="pad_shell" points="4057.1622 3325.476 4052.4378 3325.476" layerid="1" stroke-width="1.7717" /><circle c_etype="pad_hole" cx="4054.8" cy="3325.4764" r="0" layerid="1" stroke-width="0"/></g><g c_partid="part_pad" c_etype="pinpart" c_origin="4060.976,3319.25" layerid="1" number="16" net="MISO" plated ="Y"  id="gge735" locked="0" c_rotation="180" c_width="1.7717" c_height="6.4961" title="MISO" c_shape="OVAL" pasteexpansion="0" solderexpansion="0.2"><polyline  c_etype="pad_shell" points="4060.976 3321.6122 4060.976 3316.8878" layerid="1" stroke-width="1.7717" /><circle c_etype="pad_hole" cx="4060.9764" cy="3319.25" r="0" layerid="1" stroke-width="0"/></g><g c_partid="part_pad" c_etype="pinpart" c_origin="4064.126,3319.25" layerid="1" number="15" net="MOSI" plated ="Y"  id="gge750" locked="0" c_rotation="180" c_width="1.7717" c_height="6.4961" title="MOSI" c_shape="OVAL" pasteexpansion="0" solderexpansion="0.2"><polyline  c_etype="pad_shell" points="4064.126 3321.6122 4064.126 3316.8878" layerid="1" stroke-width="1.7717" /><circle c_etype="pad_hole" cx="4064.126" cy="3319.25" r="0" layerid="1" stroke-width="0"/></g><g c_partid="part_pad" c_etype="pinpart" c_origin="4067.276,3319.25" layerid="1" number="14" net="U1_14" plated ="Y"  id="gge765" locked="0" c_rotation="180" c_width="1.7717" c_height="6.4961" title="U1_14" c_shape="OVAL" pasteexpansion="0" solderexpansion="0.2"><polyline  c_etype="pad_shell" points="4067.276 3321.6122 4067.276 3316.8878" layerid="1" stroke-width="1.7717" /><circle c_etype="pad_hole" cx="4067.2756" cy="3319.25" r="0" layerid="1" stroke-width="0"/></g><g c_partid="part_pad" c_etype="pinpart" c_origin="4070.425,3319.25" layerid="1" number="13" net="U1_13" plated ="Y"  id="gge780" locked="0" c_rotation="180" c_width="1.7717" c_height="6.4961" title="U1_13" c_shape="OVAL" pasteexpansion="0" solderexpansion="0.2"><polyline  c_etype="pad_shell" points="4070.425 3321.6122 4070.425 3316.8878" layerid="1" stroke-width="1.7717" /><circle c_etype="pad_hole" cx="4070.4252" cy="3319.25" r="0" layerid="1" stroke-width="0"/></g><g c_partid="part_pad" c_etype="pinpart" c_origin="4073.575,3319.25" layerid="1" number="12" net="U1_12" plated ="Y"  id="gge795" locked="0" c_rotation="180" c_width="1.7717" c_height="6.4961" title="U1_12" c_shape="OVAL" pasteexpansion="0" solderexpansion="0.2"><polyline  c_etype="pad_shell" points="4073.575 3321.6122 4073.575 3316.8878" layerid="1" stroke-width="1.7717" /><circle c_etype="pad_hole" cx="4073.5748" cy="3319.25" r="0" layerid="1" stroke-width="0"/></g><g c_partid="part_pad" c_etype="pinpart" c_origin="4076.724,3319.25" layerid="1" number="11" net="U1_11" plated ="Y"  id="gge810" locked="0" c_rotation="180" c_width="1.7717" c_height="6.4961" title="U1_11" c_shape="OVAL" pasteexpansion="0" solderexpansion="0.2"><polyline  c_etype="pad_shell" points="4076.724 3321.6122 4076.724 3316.8878" layerid="1" stroke-width="1.7717" /><circle c_etype="pad_hole" cx="4076.7244" cy="3319.25" r="0" layerid="1" stroke-width="0"/></g><g c_partid="part_pad" c_etype="pinpart" c_origin="4079.874,3319.25" layerid="1" number="10" net="U1_10" plated ="Y"  id="gge825" locked="0" c_rotation="180" c_width="1.7717" c_height="6.4961" title="U1_10" c_shape="OVAL" pasteexpansion="0" solderexpansion="0.2"><polyline  c_etype="pad_shell" points="4079.874 3321.6122 4079.874 3316.8878" layerid="1" stroke-width="1.7717" /><circle c_etype="pad_hole" cx="4079.874" cy="3319.25" r="0" layerid="1" stroke-width="0"/></g><g c_partid="part_pad" c_etype="pinpart" c_origin="4083.024,3319.25" layerid="1" number="9" net="U1_9" plated ="Y"  id="gge840" locked="0" c_rotation="180" c_width="1.7717" c_height="6.4961" title="U1_9" c_shape="OVAL" pasteexpansion="0" solderexpansion="0.2"><polyline  c_etype="pad_shell" points="4083.024 3321.6122 4083.024 3316.8878" layerid="1" stroke-width="1.7717" /><circle c_etype="pad_hole" cx="4083.0236" cy="3319.25" r="0" layerid="1" stroke-width="0"/></g><g c_partid="part_pad" c_etype="pinpart" c_origin="4089.2,3325.476" layerid="1" number="8" net="U1_8" plated ="Y"  id="gge855" locked="0" c_rotation="270" c_width="1.7717" c_height="6.4961" title="U1_8" c_shape="OVAL" pasteexpansion="0" solderexpansion="0.2"><polyline  c_etype="pad_shell" points="4091.5622 3325.476 4086.8378 3325.476" layerid="1" stroke-width="1.7717" /><circle c_etype="pad_hole" cx="4089.2" cy="3325.4764" r="0" layerid="1" stroke-width="0"/></g><g c_partid="part_pad" c_etype="pinpart" c_origin="4089.2,3328.626" layerid="1" number="7" net="U1_7" plated ="Y"  id="gge870" locked="0" c_rotation="270" c_width="1.7717" c_height="6.4961" title="U1_7" c_shape="OVAL" pasteexpansion="0" solderexpansion="0.2"><polyline  c_etype="pad_shell" points="4091.5622 3328.626 4086.8378 3328.626" layerid="1" stroke-width="1.7717" /><circle c_etype="pad_hole" cx="4089.2" cy="3328.626" r="0" layerid="1" stroke-width="0"/></g><g c_partid="part_pad" c_etype="pinpart" c_origin="4089.2,3331.776" layerid="1" number="6" net="+5V" plated ="Y"  id="gge885" locked="0" c_rotation="270" c_width="1.7717" c_height="6.4961" title="+5V" c_shape="OVAL" pasteexpansion="0" solderexpansion="0.2"><polyline  c_etype="pad_shell" points="4091.5622 3331.776 4086.8378 3331.776" layerid="1" stroke-width="1.7717" /><circle c_etype="pad_hole" cx="4089.2" cy="3331.7756" r="0" layerid="1" stroke-width="0"/></g><g c_partid="part_pad" c_etype="pinpart" c_origin="4089.2,3334.925" layerid="1" number="5" net="GND" plated ="Y"  id="gge900" locked="0" c_rotation="270" c_width="1.7717" c_height="6.4961" title="GND" c_shape="OVAL" pasteexpansion="0" solderexpansion="0.2"><polyline  c_etype="pad_shell" points="4091.5622 3334.925 4086.8378 3334.925" layerid="1" stroke-width="1.7717" /><circle c_etype="pad_hole" cx="4089.2" cy="3334.9252" r="0" layerid="1" stroke-width="0"/></g><g c_partid="part_pad" c_etype="pinpart" c_origin="4089.2,3338.075" layerid="1" number="4" net="+5V" plated ="Y"  id="gge915" locked="0" c_rotation="270" c_width="1.7717" c_height="6.4961" title="+5V" c_shape="OVAL" pasteexpansion="0" solderexpansion="0.2"><polyline  c_etype="pad_shell" points="4091.5622 3338.075 4086.8378 3338.075" layerid="1" stroke-width="1.7717" /><circle c_etype="pad_hole" cx="4089.2" cy="3338.0748" r="0" layerid="1" stroke-width="0"/></g><g c_partid="part_pad" c_etype="pinpart" c_origin="4089.2,3341.224" layerid="1" number="3" net="GND" plated ="Y"  id="gge930" locked="0" c_rotation="270" c_width="1.7717" c_height="6.4961" title="GND" c_shape="OVAL" pasteexpansion="0" solderexpansion="0.2"><polyline  c_etype="pad_shell" points="4091.5622 3341.224 4086.8378 3341.224" layerid="1" stroke-width="1.7717" /><circle c_etype="pad_hole" cx="4089.2" cy="3341.2244" r="0" layerid="1" stroke-width="0"/></g><g c_partid="part_pad" c_etype="pinpart" c_origin="4089.2,3344.374" layerid="1" number="2" net="U1_2" plated ="Y"  id="gge945" locked="0" c_rotation="270" c_width="1.7717" c_height="6.4961" title="U1_2" c_shape="OVAL" pasteexpansion="0" solderexpansion="0.2"><polyline  c_etype="pad_shell" points="4091.5622 3344.374 4086.8378 3344.374" layerid="1" stroke-width="1.7717" /><circle c_etype="pad_hole" cx="4089.2" cy="3344.374" r="0" layerid="1" stroke-width="0"/></g><g c_partid="part_pad" c_etype="pinpart" c_origin="4089.2,3347.524" layerid="1" number="1" net="U1_1" plated ="Y"  id="gge960" locked="0" c_rotation="270" c_width="1.7717" c_height="6.4961" title="U1_1" c_shape="OVAL" pasteexpansion="0" solderexpansion="0.2"><polyline  c_etype="pad_shell" points="4091.5622 3347.524 4086.8378 3347.524" layerid="1" stroke-width="1.7717" /><circle c_etype="pad_hole" cx="4089.2" cy="3347.5236" r="0" layerid="1" stroke-width="0"/></g><g c_partid="part_pad" c_etype="pinpart" c_origin="4118.678,3317.5" layerid="1" number="2" net="U1_10" plated ="Y"  id="gge8414" locked="0" c_rotation="180" c_width="4.754" c_height="6.6969" title="U1_10" c_shape="RECT" pasteexpansion="-393.7008" solderexpansion="0.2000"><polygon  c_etype="pad_shell" points="4121.0551 3314.1516 4121.0551 3320.8484 4116.3011 3320.8484 4116.3011 3314.1516" layerid="1" stroke-width="0" /><circle c_etype="pad_hole" cx="4118.6781" cy="3317.5" r="0" layerid="1" stroke-width="0"/></g><g c_partid="part_pad" c_etype="pinpart" c_origin="4130.322,3317.5" layerid="1" number="1" net="R1_1" plated ="Y"  id="gge8429" locked="0" c_rotation="180" c_width="4.754" c_height="6.6969" title="R1_1" c_shape="RECT" pasteexpansion="-393.7008" solderexpansion="0.2000"><polygon  c_etype="pad_shell" points="4127.9449 3314.1516 4127.9449 3320.8484 4132.6989 3320.8484 4132.6989 3314.1516" layerid="1" stroke-width="0" /><circle c_etype="pad_hole" cx="4130.3219" cy="3317.5" r="0" layerid="1" stroke-width="0"/></g><g c_partid="part_pad" c_etype="pinpart" c_origin="4045.5,3357" layerid="1" number="2" net="GND" plated ="Y"  id="gge8522" locked="0" c_rotation="180" c_width="9.8425" c_height="3.1496" title="GND" c_shape="RECT" pasteexpansion="0" solderexpansion="0.4"><polygon  c_etype="pad_shell" points="4050.4213 3358.5748 4040.5787 3358.5748 4040.5787 3355.4252 4050.4213 3355.4252" layerid="1" stroke-width="0" /><circle c_etype="pad_hole" cx="4045.5" cy="3357" r="0" layerid="1" stroke-width="0"/></g><g c_partid="part_pad" c_etype="pinpart" c_origin="4030,3357" layerid="1" number="1" net="+5V" plated ="Y"  id="gge8537" locked="0" c_rotation="180" c_width="9.8425" c_height="3.1496" title="+5V" c_shape="RECT" pasteexpansion="0" solderexpansion="0.4"><polygon  c_etype="pad_shell" points="4034.9213 3358.5748 4025.0787 3358.5748 4025.0787 3355.4252 4034.9213 3355.4252" layerid="1" stroke-width="0" /><circle c_etype="pad_hole" cx="4030" cy="3357" r="0" layerid="1" stroke-width="0"/></g><g c_partid="part_pad" c_etype="pinpart" c_origin="4056.752,3364.642" layerid="1" number="1" net="NC" plated ="Y"  id="gge8697" locked="0" c_rotation="90" c_width="4.7244" c_height="7.874" title="NC" c_shape="RECT" pasteexpansion="0" solderexpansion="0.2"><polygon  c_etype="pad_shell" points="4052.815 3367.0042 4052.815 3362.2798 4060.689 3362.2798 4060.689 3367.0042" layerid="1" stroke-width="0" /><circle c_etype="pad_hole" cx="4056.7515" cy="3364.6417" r="0" layerid="1" stroke-width="0"/></g><g c_partid="part_pad" c_etype="pinpart" c_origin="4056.752,3382.358" layerid="1" number="3" net="GND" plated ="Y"  id="gge8712" locked="0" c_rotation="90" c_width="4.7244" c_height="7.874" title="GND" c_shape="RECT" pasteexpansion="0" solderexpansion="0.2"><polygon  c_etype="pad_shell" points="4052.815 3384.7202 4052.815 3379.9958 4060.689 3379.9958 4060.689 3384.7202" layerid="1" stroke-width="0" /><circle c_etype="pad_hole" cx="4056.7515" cy="3382.3583" r="0" layerid="1" stroke-width="0"/></g><g c_partid="part_pad" c_etype="pinpart" c_origin="4088.248,3382.358" layerid="1" number="4" net="SW1_4" plated ="Y"  id="gge8727" locked="0" c_rotation="90" c_width="4.7244" c_height="7.874" title="SW1_4" c_shape="RECT" pasteexpansion="0" solderexpansion="0.2"><polygon  c_etype="pad_shell" points="4084.311 3384.7202 4084.311 3379.9958 4092.185 3379.9958 4092.185 3384.7202" layerid="1" stroke-width="0" /><circle c_etype="pad_hole" cx="4088.2475" cy="3382.3583" r="0" layerid="1" stroke-width="0"/></g><g c_partid="part_pad" c_etype="pinpart" c_origin="4088.248,3364.642" layerid="1" number="2" net="U1_32" plated ="Y"  id="gge8742" locked="0" c_rotation="90" c_width="4.7244" c_height="7.874" title="U1_32" c_shape="RECT" pasteexpansion="0" solderexpansion="0.2"><polygon  c_etype="pad_shell" points="4084.311 3367.0042 4084.311 3362.2798 4092.185 3362.2798 4092.185 3367.0042" layerid="1" stroke-width="0" /><circle c_etype="pad_hole" cx="4088.2475" cy="3364.6417" r="0" layerid="1" stroke-width="0"/></g><circle cx="4164" cy="3355" r="39.37" stroke-width="1.378" fill="none" layerid="1" id="gge7766" locked="0"  net="GND" transformarc="circle_gge7770,circle_gge7773"/><circle cx="4164" cy="3355" r="29.528" stroke-width="1.5748" fill="none" layerid="1" id="gge9429" locked="0"  net="VCC" transformarc="circle_gge9433,circle_gge9436"/></svg>