<?xml version="1.0" ?><svg width="512px" height="512px" viewBox="0 0 512 512" style="enable-background:new 0 0 512 512;" version="1.1" xml:space="preserve" xmlns="http://www.w3.org/2000/svg" xmlns:xlink="http://www.w3.org/1999/xlink"><style type="text/css">
	.st0{display:none;}
	.st1{fill:#474747;}
</style><g class="st0" id="Layer_1"/><g id="Layer_2"><g><path class="st1" d="M362.54,328.74c-0.01-0.01-0.01-0.01-0.02-0.02l-100.71-87.67c-2.63-2.29-6.56-2.29-9.19,0l-98.48,85.73    l-2.23,1.94c-0.01,0.01-0.01,0.01-0.02,0.02l-17.22,14.99l-20.53-23.58l62.23-54.18c2.92-2.54,3.22-6.96,0.68-9.88    c-2.54-2.92-6.96-3.22-9.88-0.68l-67.51,58.78c-2.92,2.54-3.22,6.96-0.68,9.88l29.72,34.14c1.22,1.4,2.94,2.26,4.8,2.39    c1.87,0.13,3.68-0.48,5.08-1.7l118.63-103.27l89.69,78.08l1.8,1.57l2.22,1.93v120.19h-93.62v-91.85c0-3.87-3.13-7-7-7h-50.15    c-3.87,0-7,3.13-7,7v91.85H163.5v-87.74c0-3.87-3.13-7-7-7s-7,3.13-7,7v94.74c0,3.87,3.13,7,7,7h43.66h50.15h107.62    c3.87,0,7-3.13,7-7v-115l10.92,9.5c1.28,1.11,2.91,1.72,4.6,1.72c0.16,0,0.32-0.01,0.48-0.02c1.85-0.13,3.58-0.99,4.8-2.39    l29.72-34.14c2.54-2.92,2.23-7.34-0.68-9.88l-56.25-48.98v-71.83c0-3.87-3.13-7-7-7h-39.83c-3.87,0-7,3.13-7,7v24.96l-42.87-37.33    c-2.63-2.29-6.56-2.29-9.19,0L203,224.22c-2.92,2.54-3.22,6.96-0.68,9.88c2.54,2.92,6.96,3.22,9.88,0.68l45.02-39.2L307.08,239    c2.07,1.8,5,2.23,7.5,1.09c2.5-1.14,4.1-3.63,4.1-6.37v-33.34h25.83v68.01c0,2.02,0.88,3.95,2.4,5.28l53.38,46.47l-20.53,23.58    L362.54,328.74z M207.16,457.38v-84.85h36.15v84.85H207.16z"/><path class="st1" d="M196.52,242.1c-0.18-0.42-0.4-0.83-0.65-1.21c-0.25-0.38-0.55-0.74-0.87-1.06c-0.32-0.32-0.68-0.62-1.06-0.87    s-0.79-0.47-1.21-0.64c-0.42-0.18-0.86-0.31-1.31-0.4c-0.9-0.19-1.83-0.19-2.74,0c-0.44,0.09-0.88,0.22-1.31,0.4    c-0.42,0.17-0.82,0.39-1.2,0.64c-0.39,0.25-0.75,0.55-1.07,0.87c-1.3,1.31-2.05,3.11-2.05,4.95s0.75,3.64,2.05,4.95    c0.32,0.32,0.68,0.61,1.07,0.87c0.38,0.25,0.78,0.47,1.2,0.64c0.43,0.18,0.87,0.31,1.31,0.4c0.45,0.09,0.92,0.14,1.37,0.14    c0.46,0,0.92-0.05,1.37-0.14c0.45-0.09,0.89-0.22,1.31-0.4c0.42-0.17,0.83-0.39,1.21-0.64c0.38-0.26,0.74-0.55,1.06-0.87    c1.3-1.3,2.05-3.11,2.05-4.95c0-0.46-0.04-0.92-0.14-1.37C196.82,242.97,196.69,242.52,196.52,242.1z"/><path class="st1" d="M314.27,415.11c3.87,0,7-3.13,7-7v-42.58c0-3.87-3.13-7-7-7h-31.84c-3.87,0-7,3.13-7,7v42.58    c0,3.87,3.13,7,7,7H314.27z M289.43,372.53h17.84v28.58h-17.84V372.53z"/><path class="st1" d="M358.62,137.95c10.68-5.71,17.56-14.28,20.44-25.45c7.61-29.53-16.44-67.1-17.47-68.68    c-1.58-2.44-4.51-3.68-7.35-3.06c-2.84,0.62-5.01,2.9-5.43,5.78c-0.03,0.15-2.76,15.55-21.29,35.77    c-18.07,19.72-7.02,45.22,3,58.4c-3.95,14.75-2.89,23.85-2.74,24.91c0.48,3.51,3.48,6.04,6.93,6.04c0.32,0,0.64-0.02,0.96-0.07    c3.83-0.53,6.51-4.06,5.98-7.89c-0.01-0.07-0.84-7.24,2.4-19.36C348.3,142.61,355.5,139.62,358.62,137.95z M337.84,91.77    c9.55-10.42,15.48-19.87,19.13-27.25C363,77.36,369.02,95.35,365.5,109c-1.89,7.33-6.3,12.76-13.48,16.6    c-2.08,1.11-7.24,3.3-11.45,5.02C335.23,122.91,325.55,105.18,337.84,91.77z"/><path class="st1" d="M94.84,219.94c0,12.24,9.96,22.19,22.19,22.19s22.19-9.95,22.19-22.19s-9.95-22.19-22.19-22.19    S94.84,207.7,94.84,219.94z M125.22,219.94c0,4.52-3.67,8.19-8.19,8.19s-8.19-3.67-8.19-8.19s3.67-8.19,8.19-8.19    S125.22,215.42,125.22,219.94z"/><path class="st1" d="M159.78,128.6c-17.84,0-32.35,14.51-32.35,32.35s14.51,32.35,32.35,32.35s32.35-14.51,32.35-32.35    S177.62,128.6,159.78,128.6z M159.78,179.3c-10.12,0-18.35-8.23-18.35-18.35s8.23-18.35,18.35-18.35s18.35,8.23,18.35,18.35    S169.9,179.3,159.78,179.3z"/><path class="st1" d="M249.29,142.16c0-11.71-9.53-21.24-21.24-21.24s-21.24,9.53-21.24,21.24c0,11.71,9.53,21.24,21.24,21.24    S249.29,153.87,249.29,142.16z M220.8,142.16c0-3.99,3.25-7.24,7.24-7.24s7.24,3.25,7.24,7.24c0,3.99-3.25,7.24-7.24,7.24    S220.8,146.15,220.8,142.16z"/></g></g></svg>