<?xml version="1.0" ?><!DOCTYPE svg  PUBLIC '-//W3C//DTD SVG 1.1//EN'  'http://www.w3.org/Graphics/SVG/1.1/DTD/svg11.dtd'><svg width="64px" height="64px" viewBox="0 0 64 64" enable-background="new 0 0 64 64" id="Layer_1" version="1.1" xml:space="preserve" xmlns="http://www.w3.org/2000/svg" xmlns:xlink="http://www.w3.org/1999/xlink"><path d="M26.229,47.985c-1.466,0-3.006-0.21-4.658-0.625c-2.694-0.678-6.767-1.702-6.399-6.729c0.031-0.427,0.056-0.829,0.079-1.226  c0.067-1.114,0.131-2.167,0.33-3.584c0.077-0.547,0.581-0.932,1.129-0.852c0.547,0.076,0.929,0.582,0.852,1.129  c-0.188,1.339-0.249,2.354-0.314,3.428c-0.024,0.404-0.049,0.815-0.081,1.251c-0.209,2.866,1.341,3.749,4.894,4.643  c4.398,1.104,7.751,0.616,11.202-1.636l0.125-0.081c1.636-1.067,3.327-2.172,4.772-3.438c1.756-1.537,3.553-3.227,4.804-5.155  c1.635-2.521,3.867-5.963,3.889-8.921c0.016-2.26-1.113-7.138-2.696-7.871c-1.138-0.529-4.072-0.261-5.822-0.101  c-0.422,0.039-0.804,0.073-1.126,0.096c-0.573,0.04-1.028-0.376-1.067-0.927s0.376-1.029,0.927-1.067  c0.311-0.022,0.679-0.056,1.085-0.093c2.202-0.202,5.218-0.478,6.846,0.277c2.972,1.378,3.866,7.96,3.854,9.699  c-0.025,3.542-2.442,7.269-4.206,9.988c-1.389,2.141-3.305,3.946-5.169,5.579c-1.552,1.358-3.303,2.502-4.997,3.607l-0.124,0.081  C31.754,47.157,29.139,47.985,26.229,47.985z"/><path d="M31.186,39.221c-0.897,0-2.066-0.312-3.207-1.528c-1.673-1.783-1.824-1.771-4.409-1.534  c-1.008,0.093-2.025,0.143-3.043,0.193c-1.255,0.062-2.553,0.126-3.795,0.275c-0.551,0.068-1.046-0.326-1.112-0.874  c-0.065-0.548,0.325-1.046,0.874-1.112c1.312-0.157,2.646-0.224,3.935-0.287c0.99-0.049,1.979-0.098,2.959-0.188  c3.109-0.284,3.898-0.138,6.051,2.159c0.636,0.678,1.286,0.969,1.979,0.881c1.613-0.196,3.288-2.234,4.23-3.919  c0.454-0.811,1.86-3.573,0.922-5.112c-0.294-0.48-0.725-0.719-1.223-0.995c-0.811-0.449-1.921-1.063-2.022-2.825  c-0.13-2.23,2.919-7.491,2.95-7.544c0.28-0.475,0.892-0.636,1.369-0.355c0.476,0.279,0.635,0.893,0.355,1.369  c-1.132,1.928-2.738,5.385-2.679,6.415c0.037,0.633,0.253,0.779,0.995,1.191c0.62,0.343,1.391,0.771,1.961,1.702  c1.411,2.313,0.052,5.46-0.884,7.131c-0.596,1.064-2.77,4.566-5.733,4.928C31.512,39.21,31.354,39.221,31.186,39.221z"/><path d="M37.817,28.566c-0.194,0-0.391-0.057-0.563-0.175c-0.456-0.312-0.572-0.934-0.261-1.39c1.675-2.449,3.68-7.892,4.167-9.676  c0.146-0.533,0.695-0.843,1.229-0.701c0.532,0.146,0.847,0.695,0.701,1.229c-0.473,1.731-2.557,7.515-4.446,10.277  C38.45,28.414,38.137,28.566,37.817,28.566z"/><path d="M16.229,42.494c-0.526,0-0.967-0.411-0.997-0.943c-0.032-0.551,0.39-1.023,0.941-1.055  c2.175-0.125,10.66-2.393,12.787-3.418c0.502-0.243,1.096-0.031,1.335,0.466c0.24,0.498,0.031,1.096-0.466,1.335  c-2.185,1.054-10.92,3.464-13.542,3.613C16.269,42.493,16.249,42.494,16.229,42.494z"/><path d="M24.831,27.885c-0.077,0-0.156-0.009-0.234-0.027c-0.537-0.129-0.868-0.669-0.739-1.206  c0.051-0.211,0.082-0.433,0.114-0.654c0.049-0.331,0.099-0.673,0.198-1.019c0.656-2.305,1.931-3.873,3.787-4.657  c0.508-0.216,1.096,0.023,1.311,0.531c0.215,0.509-0.022,1.096-0.531,1.311c-1.271,0.537-2.161,1.67-2.644,3.364  c-0.069,0.242-0.104,0.501-0.142,0.76c-0.042,0.281-0.084,0.563-0.148,0.831C25.692,27.577,25.282,27.885,24.831,27.885z"/><path d="M19.333,27.176c-0.535,0-0.979-0.425-0.998-0.965c-0.025-0.709-0.038-1.772,0.143-2.804c0.542-3.09,2.587-5.297,6.253-6.747  c0.514-0.202,1.095,0.048,1.298,0.562s-0.048,1.095-0.562,1.298c-3.007,1.189-4.602,2.853-5.019,5.233  c-0.148,0.846-0.137,1.768-0.115,2.388c0.02,0.552-0.412,1.015-0.964,1.034C19.357,27.176,19.346,27.176,19.333,27.176z"/></svg>