<svg xmlns="http://www.w3.org/2000/svg" id="Layer_2" data-name="Layer 2" viewBox="0 0 1000 1000">
  <defs>
    <style>
      .cls-1{fill:none;stroke:#020202;stroke-linecap:round;stroke-miterlimit:10;stroke-width:22px}
    </style>
  </defs>
  <path d="m335.8 415.19-136.33 61a6.16 6.16 0 0 0-3.5 3.57l-47.48 127.95a6.13 6.13 0 0 0 7.68 7.95l283-104 16 149.28-87.65 102.44a1.64 1.64 0 0 0-.34 1.49l16.68 62.56a1.64 1.64 0 0 0 2.7.78l112.32-103.86a1.64 1.64 0 0 1 2.24 0l112.32 103.86a1.64 1.64 0 0 0 2.7-.78l16.68-62.56a1.64 1.64 0 0 0-.34-1.49L544.6 661M424.56 374.18l-9.44-118.06a84.77 84.77 0 0 1 169.54 0l-9.54 119.21 225.41 100.88a6.16 6.16 0 0 1 3.5 3.57l47.48 127.93a6.13 6.13 0 0 1-7.68 7.95L560.56 511.59 554 572.83" class="cls-1"/>
</svg>
