<?xml version="1.0" ?><!DOCTYPE svg  PUBLIC '-//W3C//DTD SVG 1.1//EN'  'http://www.w3.org/Graphics/SVG/1.1/DTD/svg11.dtd'><svg width="512px" height="512px" viewBox="0 0 512 512" enable-background="new 0 0 512 512" id="Слой_1" version="1.1" xml:space="preserve" xmlns="http://www.w3.org/2000/svg" xmlns:xlink="http://www.w3.org/1999/xlink"><g><g><g><g><path d="M412.449,485.409c-1.451,0-2.844-0.577-3.87-1.604L294.118,369.357       c-1.029-1.028-1.606-2.426-1.604-3.883l0.066-28.525c0.003-1.448,0.58-2.833,1.604-3.856l15.453-15.45l-17.094-17.335       l-32.938,19.023c-1.692,0.976-3.779,0.979-5.471,0.003l-33.714-19.448l-17.051,17.097l16.112,16.11       c1.023,1.023,1.602,2.408,1.604,3.856l0.069,28.525c0.003,1.457-0.574,2.854-1.603,3.883L105.091,483.806       c-2.052,2.052-5.687,2.052-7.739,0l-68.553-68.545c-2.138-2.138-2.138-5.601-0.003-7.738l114.462-114.515       c1.028-1.029,2.421-1.606,3.872-1.606c0.005,0,0.008,0,0.014,0l28.528,0.069c1.451,0.003,2.841,0.583,3.865,1.611       l16.099,16.151l14.979-15.019l-7.322-4.232c-1.689-0.979-2.731-2.784-2.731-4.738V226.55c0-1.951,1.042-3.757,2.731-4.735       l7.35-4.252l-15.036-15.204l-16.083,16.03c-1.023,1.019-2.408,1.593-3.852,1.596l-28.599,0.066c-0.005,0-0.008,0-0.013,0       c-1.451,0-2.844-0.574-3.87-1.604L28.729,104.002c-1.026-1.025-1.604-2.421-1.604-3.869c0-1.453,0.577-2.843,1.604-3.869       l68.556-68.548c2.138-2.138,5.602-2.135,7.739,0l114.528,114.445c1.028,1.031,1.605,2.43,1.603,3.886l-0.069,28.528       c-0.002,1.443-0.577,2.827-1.596,3.848l-16.142,16.194l17.08,17.275l33.692-19.558c1.697-0.986,3.79-0.989,5.486-0.006       l33.514,19.376l17.174-17.169l-16.11-16.104c-1.023-1.023-1.601-2.411-1.604-3.856l-0.066-28.528       c-0.003-1.459,0.574-2.854,1.604-3.886L408.646,27.716c2.139-2.135,5.602-2.138,7.74,0l68.553,68.548       c2.138,2.135,2.138,5.601,0,7.738L370.479,218.447c-1.026,1.026-2.418,1.604-3.869,1.604c-0.006,0-0.009,0-0.014,0       l-28.532-0.066c-1.442-0.003-2.827-0.577-3.851-1.596L318.04,202.27l-15.116,15.114l7.525,4.366       c1.687,0.979,2.727,2.782,2.727,4.732v58.762c0,1.957-1.045,3.763-2.739,4.741l-8.095,4.668l15.029,15.242l15.384-15.435       c0.005-0.005,0.011-0.014,0.019-0.019l1.368-1.368c1.034-1.034,2.48-1.593,3.901-1.604c0.009,0,0.014,0,0.021,0l28.463-0.069       c0.005,0,0.008,0,0.013,0c1.451,0,2.844,0.577,3.873,1.606l114.461,114.515c2.136,2.138,2.136,5.601-0.003,7.738       l-68.553,68.545C415.292,484.832,413.9,485.409,412.449,485.409z M40.408,411.389l60.813,60.809l108.982-108.97l-0.06-23.991       l-18.373-18.374c-0.006-0.005-0.008-0.011-0.014-0.014l-18.376-18.438l-23.988-0.06L40.408,411.389z M303.467,363.228       l108.982,108.97l60.813-60.809L364.276,302.352l-23.993,0.06l-19.05,19.116c-0.008,0.009-0.014,0.014-0.019,0.02       l-17.692,17.689L303.467,363.228z M222.238,288.296c0.003,0.003,0.008,0.003,0.011,0.009l34.617,19.969l33.857-19.553       c0.003-0.002,0.009-0.005,0.014-0.008l11.492-6.63v-52.449l-10.947-6.35h-0.003l-34.405-19.892l-34.609,20.09       c-0.003,0.005-0.005,0.005-0.008,0.005l-10.749,6.221v52.381L222.238,288.296z M40.339,100.133L149.321,209.1l24.071-0.056       l36.752-36.751l0.06-23.996L101.154,39.324L40.339,100.133z M340.345,209.044l24.004,0.056l108.98-108.967l-60.813-60.809       L303.467,148.297l0.056,23.991l18.376,18.371l0,0L340.345,209.044z M104.984,449.903c-1.397,0-2.793-0.529-3.862-1.593       c-2.141-2.133-2.148-5.596-0.016-7.738l13.114-13.174v-9.642l-19.442-19.502h-9.627l-13.173,13.174       c-2.138,2.138-5.602,2.138-7.739,0s-2.138-5.601,0-7.738l14.776-14.777c1.026-1.026,2.418-1.604,3.869-1.604H97.05       c1.454,0,2.849,0.58,3.875,1.608l22.645,22.714c1.023,1.026,1.598,2.416,1.598,3.864v14.16c0,1.445-0.572,2.835-1.596,3.861       l-14.709,14.777C107.793,449.369,106.39,449.903,104.984,449.903z M408.686,449.767c-1.405,0-2.809-0.537-3.877-1.611       l-14.71-14.777c-1.023-1.025-1.596-2.413-1.596-3.858v-14.093c0-1.446,0.572-2.833,1.591-3.859l22.644-22.777       c1.029-1.037,2.427-1.617,3.884-1.617h14.161c1.451,0,2.844,0.577,3.87,1.604l14.778,14.777c2.139,2.136,2.139,5.604,0,7.739       c-2.138,2.138-5.602,2.138-7.739,0l-13.176-13.175h-9.618l-19.447,19.563v9.577l13.113,13.174       c2.133,2.144,2.125,5.606-0.016,7.739C411.479,449.235,410.084,449.767,408.686,449.767z M140.767,414.194       c-1.397,0-2.793-0.531-3.862-1.595c-2.141-2.133-2.148-5.596-0.016-7.739l13.114-13.174v-9.633l-19.507-19.508h-9.629       l-13.176,13.174c-2.138,2.138-5.602,2.138-7.739,0c-2.139-2.135-2.139-5.604,0-7.738l14.778-14.777       c1.026-1.026,2.419-1.604,3.87-1.604h14.162c1.451,0,2.843,0.577,3.869,1.604l22.714,22.711       c1.026,1.026,1.604,2.421,1.604,3.869v14.163c0,1.445-0.572,2.832-1.596,3.858l-14.709,14.777       C143.575,413.657,142.172,414.194,140.767,414.194z M372.903,414.059c-1.405,0-2.809-0.537-3.878-1.611l-14.709-14.775       c-1.023-1.025-1.596-2.415-1.596-3.863v-14.16c0-1.451,0.577-2.844,1.604-3.869l22.714-22.711       c1.026-1.026,2.419-1.604,3.87-1.604h14.161c1.451,0,2.844,0.577,3.87,1.604l14.779,14.776c2.138,2.136,2.138,5.602,0,7.739       c-2.139,2.138-5.602,2.138-7.74,0l-13.176-13.174h-9.629l-19.506,19.507v9.634l13.113,13.174       c2.133,2.143,2.125,5.608-0.016,7.741C375.696,413.526,374.302,414.059,372.903,414.059z M176.479,378.556       c-1.397,0-2.793-0.532-3.862-1.596c-2.141-2.132-2.148-5.599-0.016-7.741l13.114-13.174v-9.569l-19.513-19.568h-9.557       l-13.173,13.171c-2.138,2.138-5.602,2.138-7.739,0c-2.139-2.135-2.139-5.604,0-7.738l14.776-14.775       c1.026-1.025,2.418-1.603,3.869-1.603h14.096c1.453,0,2.849,0.577,3.875,1.608l22.714,22.777       c1.023,1.026,1.598,2.416,1.598,3.864v14.094c0,1.448-0.572,2.835-1.596,3.861l-14.709,14.774       C179.288,378.016,177.885,378.556,176.479,378.556z M337.19,378.486c-1.405,0-2.809-0.537-3.877-1.611l-14.71-14.775       c-1.023-1.025-1.596-2.415-1.596-3.863v-14.16c0-1.448,0.575-2.838,1.599-3.864l22.714-22.78       c1.025-1.029,2.421-1.609,3.875-1.609h14.092c1.451,0,2.844,0.577,3.87,1.604l14.778,14.777c2.139,2.138,2.139,5.602,0,7.739       c-2.138,2.138-5.602,2.138-7.739,0l-13.176-13.175h-9.554l-19.512,19.571v9.639l13.113,13.175       c2.133,2.143,2.125,5.608-0.016,7.741C339.983,377.954,338.589,378.486,337.19,378.486z M256.897,290.65       c-0.011,0-0.021,0-0.034,0c-9.563-0.005-17.839-3.447-24.601-10.229c-6.804-6.809-10.22-15.061-10.217-24.595       c-0.024-9.468,3.309-17.689,9.912-24.419c0.04-0.042,0.083-0.085,0.126-0.128l0,0c0.005,0,0.008-0.005,0.011-0.008       c0.146-0.142,0.299-0.27,0.459-0.393c6.706-6.59,14.884-9.931,24.313-9.938c9.289,0.011,17.36,3.252,24.01,9.639       c0.205,0.155,0.4,0.323,0.588,0.508c0.003,0.006,0.008,0.011,0.013,0.014l0.062,0.063c6.778,6.78,10.218,15.08,10.223,24.662       c-0.005,9.572-3.447,17.848-10.228,24.605l-0.476,0.474c0,0.002,0,0.002,0,0.002c-0.006,0.006-0.014,0.011-0.019,0.017       c-0.051,0.048-0.1,0.096-0.152,0.145C274.189,287.449,266.143,290.65,256.897,290.65z M244.209,276.108       c3.736,2.421,7.91,3.592,12.662,3.597c0.008,0,0.016,0,0.024,0c4.519,0,8.507-1.053,12.071-3.19l-12.496-12.621       L244.209,276.108z M264.207,256.149l12.7,12.824c2.619-3.835,3.904-8.175,3.907-13.147c-0.003-4.783-1.187-8.989-3.6-12.725       L264.207,256.149z M236.312,243.454c-2.239,3.64-3.333,7.723-3.319,12.361c-0.003,4.714,1.146,8.855,3.493,12.535       l12.342-12.292L236.312,243.454z M243.969,235.63l12.493,12.581l12.842-12.881c-3.664-2.306-7.771-3.438-12.44-3.444       C252.002,231.889,247.744,233.12,243.969,235.63z M359.287,195.63h-14.092c-1.454,0-2.85-0.58-3.875-1.609l-22.714-22.78       c-1.023-1.026-1.599-2.416-1.599-3.864v-14.09c0-1.446,0.572-2.836,1.593-3.861l14.71-14.777       c2.141-2.144,5.602-2.148,7.742-0.017c2.141,2.133,2.148,5.596,0.019,7.739l-13.116,13.174v9.571l19.512,19.569h9.554       l13.176-13.172c2.138-2.138,5.602-2.138,7.739,0c2.139,2.138,2.139,5.602,0,7.739l-14.778,14.774       C362.131,195.053,360.738,195.63,359.287,195.63z M168.476,195.493H154.38c-1.451,0-2.843-0.577-3.869-1.604l-14.776-14.777       c-2.139-2.135-2.139-5.601,0-7.738c2.138-2.138,5.602-2.138,7.739,0l13.173,13.174h9.563l19.507-19.507v-9.634l-13.114-13.174       c-2.133-2.143-2.125-5.608,0.016-7.741c2.146-2.133,5.61-2.122,7.74,0.019l14.709,14.774c1.023,1.026,1.596,2.416,1.596,3.864       v14.16c0,1.451-0.577,2.843-1.604,3.869l-22.714,22.711C171.318,194.916,169.927,195.493,168.476,195.493z M395.069,159.99       h-14.161c-1.451,0-2.844-0.577-3.87-1.604l-22.714-22.714c-1.026-1.025-1.604-2.415-1.604-3.869v-14.16       c0-1.445,0.572-2.835,1.596-3.861l14.709-14.777c2.133-2.138,5.597-2.148,7.74-0.016c2.141,2.133,2.148,5.596,0.016,7.738       l-13.113,13.175v9.636l19.506,19.507h9.629l13.176-13.174c2.139-2.138,5.602-2.138,7.74,0c2.138,2.138,2.138,5.601,0,7.738       l-14.779,14.777C397.913,159.413,396.521,159.99,395.069,159.99z M132.763,159.921h-14.162c-1.451,0-2.844-0.577-3.87-1.604       L99.952,143.54c-2.139-2.135-2.139-5.601,0-7.738c2.138-2.138,5.602-2.138,7.739,0l13.176,13.174h9.623l19.513-19.571v-9.636       l-13.114-13.174c-2.133-2.144-2.125-5.609,0.016-7.742c2.146-2.132,5.61-2.124,7.74,0.02l14.709,14.774       c1.023,1.025,1.596,2.413,1.596,3.861v14.16c0,1.448-0.574,2.838-1.598,3.863l-22.714,22.781       C135.611,159.344,134.216,159.921,132.763,159.921z M430.782,124.279h-14.161c-1.454,0-2.85-0.577-3.876-1.609l-22.644-22.711       c-1.023-1.026-1.599-2.415-1.599-3.864V81.936c0-1.448,0.572-2.836,1.596-3.861l14.71-14.775       c2.132-2.143,5.596-2.15,7.739-0.019c2.141,2.133,2.148,5.599,0.016,7.741L399.45,84.196v9.636l19.442,19.502h9.623       l13.176-13.172c2.138-2.138,5.602-2.138,7.739,0c2.139,2.136,2.139,5.604,0,7.739l-14.778,14.774       C433.626,123.704,432.233,124.279,430.782,124.279z M97.05,124.212H82.885c-1.456,0-2.852-0.58-3.88-1.611l-14.776-14.847       c-2.13-2.143-2.122-5.606,0.019-7.738c2.144-2.138,5.604-2.127,7.742,0.019l13.17,13.232h9.613l19.448-19.563v-9.646       l-13.117-13.174c-2.13-2.143-2.122-5.606,0.019-7.738c2.144-2.13,5.604-2.127,7.743,0.016l14.709,14.777       c1.021,1.026,1.593,2.416,1.593,3.861v14.16c0,1.445-0.572,2.832-1.59,3.858l-22.645,22.778       C99.904,123.632,98.506,124.212,97.05,124.212z" fill="#333333"/></g></g></g></g></svg>