<?xml version="1.0" ?><svg width="8.4666669px" height="8.4666669px" viewBox="0 0 8.4666669 8.4666669" id="svg8" version="1.1" xmlns="http://www.w3.org/2000/svg" xmlns:cc="http://creativecommons.org/ns#" xmlns:dc="http://purl.org/dc/elements/1.1/" xmlns:inkscape="http://www.inkscape.org/namespaces/inkscape" xmlns:rdf="http://www.w3.org/1999/02/22-rdf-syntax-ns#" xmlns:sodipodi="http://sodipodi.sourceforge.net/DTD/sodipodi-0.dtd" xmlns:svg="http://www.w3.org/2000/svg"><defs id="defs2"/><g id="layer1" transform="translate(0,-288.53332)"><path d="m 16.033203,1.0117188 c -2.833585,0 -5.216959,1.9898455 -5.837891,4.640625 C 9.4641459,4.6664753 8.3021699,4.015625 6.9902344,4.015625 c -2.1972945,0 -4,1.8026961 -4,4 0,1.188193 0.5372429,2.249339 1.3691406,2.984375 H 2 c -0.5522619,5.5e-5 -0.9999448,0.447738 -1,1 v 18 c 5.52e-5,0.552262 0.4477381,0.999945 1,1 h 21 c 0.552262,-5.5e-5 0.999945,-0.447738 1,-1 v -2.998047 h 1.1875 C 25.60542,28.15831 26.707733,29 28,29 h 2 c 0.552262,-5.5e-5 0.999945,-0.447738 1,-1 V 15 c -5.5e-5,-0.552262 -0.447738,-0.999945 -1,-1 h -2 c -1.294426,0 -2.398165,0.844549 -2.814453,2.003906 H 24 V 12 c -5.5e-5,-0.552262 -0.447738,-0.999945 -1,-1 h -2.501953 c 0.951374,-1.0611695 1.537113,-2.4576012 1.537109,-3.9882812 9e-6,-3.3018709 -2.700083,-6 -6.001953,-6 z m 0,2 c 2.220988,0 4.001959,1.7790362 4.001953,4 6e-6,2.174841 -1.710876,3.9163952 -3.867187,3.9882812 h -0.269531 c -2.156157,-0.07205 -3.865241,-1.8135505 -3.865235,-3.9882812 -6e-6,-2.2209638 1.779013,-4 4,-4 z M 6.9902344,6.015625 c 1.1164142,0 2.0000004,0.8835654 2,2 4e-7,1.1163968 -0.8835858,2.001953 -2,2.001953 -1.1164143,0 -2,-0.8855562 -2,-2.001953 0,-1.1164346 0.8835857,-2 2,-2 z M 10.644531,9.6269531 C 10.889476,10.127344 11.199953,10.589077 11.568359,11 H 9.6210938 C 10.052075,10.619293 10.407924,10.158117 10.644531,9.6269531 Z M 3,13 H 22 V 29 H 3 Z m 25,3 h 1 v 11 h -1 c -0.565608,0 -0.987669,-0.421627 -0.996094,-0.984375 v -9.03125 C 27.012331,16.421591 27.434392,16 28,16 Z m -4,1.996094 h 1 v 7.005859 h -1 z" id="path827" style="color:#000000;font-style:normal;font-variant:normal;font-weight:normal;font-stretch:normal;font-size:medium;line-height:normal;font-family:sans-serif;font-variant-ligatures:normal;font-variant-position:normal;font-variant-caps:normal;font-variant-numeric:normal;font-variant-alternates:normal;font-feature-settings:normal;text-indent:0;text-align:start;text-decoration:none;text-decoration-line:none;text-decoration-style:solid;text-decoration-color:#000000;letter-spacing:normal;word-spacing:normal;text-transform:none;writing-mode:lr-tb;direction:ltr;text-orientation:mixed;dominant-baseline:auto;baseline-shift:baseline;text-anchor:start;white-space:normal;shape-padding:0;clip-rule:nonzero;display:inline;overflow:visible;visibility:visible;opacity:1;isolation:auto;mix-blend-mode:normal;color-interpolation:sRGB;color-interpolation-filters:linearRGB;solid-color:#000000;solid-opacity:1;vector-effect:none;fill:#000000;fill-opacity:1;fill-rule:nonzero;stroke:none;stroke-width:1.99999988;stroke-linecap:round;stroke-linejoin:round;stroke-miterlimit:4;stroke-dasharray:none;stroke-dashoffset:0;stroke-opacity:1;paint-order:stroke fill markers;color-rendering:auto;image-rendering:auto;shape-rendering:auto;text-rendering:auto;enable-background:accumulate" transform="matrix(0.26458333,0,0,0.26458333,0,288.53332)"/><path d="m 1.5878906,292.50195 a 0.26465,0.26465 0 1 0 0,0.5293 h 0.5292969 a 0.26465,0.26465 0 1 0 0,-0.5293 z" id="path865" style="color:#000000;font-style:normal;font-variant:normal;font-weight:normal;font-stretch:normal;font-size:medium;line-height:normal;font-family:sans-serif;font-variant-ligatures:normal;font-variant-position:normal;font-variant-caps:normal;font-variant-numeric:normal;font-variant-alternates:normal;font-feature-settings:normal;text-indent:0;text-align:start;text-decoration:none;text-decoration-line:none;text-decoration-style:solid;text-decoration-color:#000000;letter-spacing:normal;word-spacing:normal;text-transform:none;writing-mode:lr-tb;direction:ltr;text-orientation:mixed;dominant-baseline:auto;baseline-shift:baseline;text-anchor:start;white-space:normal;shape-padding:0;clip-rule:nonzero;display:inline;overflow:visible;visibility:visible;opacity:1;isolation:auto;mix-blend-mode:normal;color-interpolation:sRGB;color-interpolation-filters:linearRGB;solid-color:#000000;solid-opacity:1;vector-effect:none;fill:#000000;fill-opacity:1;fill-rule:nonzero;stroke:none;stroke-width:0.5291667;stroke-linecap:round;stroke-linejoin:miter;stroke-miterlimit:4;stroke-dasharray:none;stroke-dashoffset:0;stroke-opacity:1;color-rendering:auto;image-rendering:auto;shape-rendering:auto;text-rendering:auto;enable-background:accumulate"/></g></svg>