<?xml version="1.0" ?><!DOCTYPE svg  PUBLIC '-//W3C//DTD SVG 1.1//EN'  'http://www.w3.org/Graphics/SVG/1.1/DTD/svg11.dtd'><svg width="64px" height="64px" viewBox="0 0 64 64" enable-background="new 0 0 64 64" id="Layer_1" version="1.1" xml:space="preserve" xmlns="http://www.w3.org/2000/svg" xmlns:xlink="http://www.w3.org/1999/xlink"><path d="M19.049,32.552c-0.552,0-1-0.447-1-1s0.448-1,1-1c0.624,0,1.554-0.006,2.434-0.011c0.795-0.005,1.549-0.01,2.004-0.01  c0.552,0,1,0.447,1,1s-0.448,1-1,1c-0.452,0-1.202,0.005-1.992,0.01C20.611,32.546,19.676,32.552,19.049,32.552z"/><path d="M19.049,42.355c-0.552,0-1-0.447-1-1s0.448-1,1-1c0.624,0,1.554-0.006,2.434-0.012c0.795-0.005,1.549-0.01,2.004-0.01  c0.552,0,1,0.447,1,1s-0.448,1-1,1c-0.452,0-1.202,0.005-1.991,0.01C20.611,42.35,19.677,42.355,19.049,42.355z"/><path d="M19.049,42.355c-0.552,0-1-0.447-1-1v-9.804c0-0.553,0.448-1,1-1s1,0.447,1,1v9.804  C20.049,41.908,19.602,42.355,19.049,42.355z"/><path d="M23.487,42.355c-0.552,0-1-0.447-1-1v-9.804c0-0.553,0.448-1,1-1s1,0.447,1,1v9.804  C24.487,41.908,24.039,42.355,23.487,42.355z"/><path d="M29.174,28.731c-0.552,0-1-0.447-1-1s0.448-1,1-1c0.623,0,1.552-0.008,2.431-0.016c0.796-0.007,1.551-0.014,2.007-0.014  c0.553,0,1,0.447,1,1s-0.447,1-1,1c-0.451,0-1.201,0.007-1.99,0.014C30.737,28.724,29.802,28.731,29.174,28.731z"/><path d="M29.174,42.376c-0.552,0-1-0.447-1-1s0.448-1,1-1c0.623,0,1.552-0.009,2.43-0.017c0.796-0.008,1.552-0.015,2.008-0.015  c0.553,0,1,0.447,1,1s-0.447,1-1,1c-0.451,0-1.2,0.007-1.989,0.015C30.738,42.367,29.802,42.376,29.174,42.376z"/><path d="M29.174,42.376c-0.552,0-1-0.447-1-1V27.731c0-0.553,0.448-1,1-1s1,0.447,1,1v13.645  C30.174,41.929,29.727,42.376,29.174,42.376z"/><path d="M33.612,42.345c-0.553,0-1-0.447-1-1V27.7c0-0.553,0.447-1,1-1s1,0.447,1,1v13.645  C34.612,41.897,34.165,42.345,33.612,42.345z"/><path d="M38.8,42.376c-0.553,0-1-0.447-1-1s0.447-1,1-1c0.623,0,1.551-0.009,2.43-0.017c0.796-0.008,1.552-0.015,2.008-0.015  c0.553,0,1,0.447,1,1s-0.447,1-1,1c-0.452,0-1.2,0.007-1.989,0.015C40.362,42.367,39.428,42.376,38.8,42.376z"/><path d="M38.8,42.376c-0.553,0-1-0.447-1-1V23.718c0-0.553,0.447-1,1-1s1,0.447,1,1v17.658C39.8,41.929,39.353,42.376,38.8,42.376z"/><path d="M43.315,42.345c-0.553,0-1-0.447-1-1c0-1.618-0.021-5.646-0.042-9.495c-0.019-3.522-0.036-6.895-0.036-8.132  c0-0.553,0.447-1,1-1s1,0.447,1,1c0,1.236,0.018,4.604,0.036,8.121c0.021,3.853,0.042,7.886,0.042,9.506  C44.315,41.897,43.868,42.345,43.315,42.345z"/><path d="M45.659,24.572h-2.422c-0.553,0-1-0.447-1-1s0.447-1,1-1h2.422c0.553,0,1,0.447,1,1S46.212,24.572,45.659,24.572z"/><path d="M38.8,24.718h-2.422c-0.553,0-1-0.447-1-1s0.447-1,1-1H38.8c0.553,0,1,0.447,1,1S39.353,24.718,38.8,24.718z"/><path d="M45.66,24.572c-0.293,0-0.583-0.128-0.78-0.373c-0.475-0.591-1.197-1.463-1.938-2.356c-1.018-1.228-2.069-2.497-2.581-3.159  c-0.337-0.438-0.256-1.065,0.181-1.403c0.44-0.337,1.066-0.255,1.403,0.181c0.49,0.636,1.53,1.892,2.537,3.105  c0.748,0.903,1.477,1.783,1.956,2.379c0.346,0.431,0.277,1.061-0.152,1.406C46.101,24.5,45.88,24.572,45.66,24.572z"/><path d="M36.377,24.718c-0.22,0-0.44-0.072-0.625-0.22c-0.431-0.346-0.5-0.976-0.154-1.406l0.597-0.742  c1.248-1.553,3.162-3.936,3.896-4.888c0.337-0.438,0.965-0.521,1.402-0.182c0.438,0.337,0.519,0.965,0.182,1.402  c-0.739,0.959-2.666,3.356-3.922,4.92l-0.595,0.741C36.96,24.59,36.67,24.718,36.377,24.718z"/><path d="M18.599,46.927c-0.094,0-0.18,0-0.259,0c-0.552-0.001-0.999-0.449-0.998-1.002c0.001-0.552,0.449-0.998,1-0.998  c0,0,0.001,0,0.001,0c3.458-0.016,22.124-0.133,25.668-0.27c0.558-0.032,1.017,0.408,1.038,0.96s-0.408,1.017-0.96,1.038  C40.606,46.791,22.67,46.927,18.599,46.927z"/></svg>