<?xml version="1.0" ?><!DOCTYPE svg  PUBLIC '-//W3C//DTD SVG 1.1//EN'  'http://www.w3.org/Graphics/SVG/1.1/DTD/svg11.dtd'><svg width="64px" height="64px" viewBox="0 0 64 64" enable-background="new 0 0 64 64" id="Layer_1" version="1.1" xml:space="preserve" xmlns="http://www.w3.org/2000/svg" xmlns:xlink="http://www.w3.org/1999/xlink"><g><path d="M27.366,47.291c-0.791,0-1.587-0.095-2.388-0.315c-3.033-0.838-5.895-3.309-7.653-6.611   c-1.753-3.291-1.861-8.182,1.325-11.161c2.929-2.74,6.932-1.862,9.581-1.28c0.54,0.118,0.881,0.651,0.762,1.19   c-0.119,0.54-0.649,0.881-1.191,0.763c-2.964-0.649-5.791-1.081-7.786,0.788c-2.451,2.292-2.321,6.142-0.926,8.761   c1.506,2.826,3.906,4.929,6.42,5.623c2.829,0.782,5.798-0.458,8.669-1.656c0.855-0.357,1.739-0.726,2.597-1.029   c1.348-0.479,2.492-0.777,3.599-0.939c0.545-0.084,1.054,0.298,1.134,0.844c0.08,0.547-0.298,1.055-0.844,1.135   c-0.974,0.144-1.998,0.412-3.22,0.846c-0.807,0.285-1.626,0.628-2.495,0.99C32.61,46.214,30.028,47.291,27.366,47.291z"/></g><g><path d="M40.689,30.514c-0.031,0-0.063-0.001-0.094-0.004c-0.299-0.028-0.597-0.059-0.896-0.093   c-1.922-0.216-4.556-0.511-6.074-2.828c-0.854-1.305-1.119-2.809-1.375-4.264c-0.154-0.872-0.299-1.695-0.562-2.426   c-0.91-2.529-1.688-2.258-2.106-2.106c-1.046,0.372-1.727,2.306-1.938,4.056c-0.221,1.839,0.173,3.723,0.632,5.484   c0.139,0.534-0.181,1.08-0.716,1.22c-0.538,0.137-1.081-0.182-1.22-0.716c-0.508-1.952-0.943-4.057-0.682-6.227   c0.171-1.428,0.832-4.841,3.252-5.702c2.038-0.727,3.607,0.389,4.659,3.315c0.321,0.891,0.488,1.838,0.649,2.755   c0.232,1.313,0.45,2.555,1.079,3.515c0.929,1.417,2.573,1.706,4.626,1.937c0.286,0.033,0.572,0.062,0.857,0.088   c0.55,0.052,0.954,0.539,0.902,1.089C41.635,30.125,41.199,30.514,40.689,30.514z"/></g><g><path d="M40.688,46.211c-0.001,0-0.003,0-0.004,0c-0.552-0.003-0.998-0.452-0.996-1.005c0.008-1.823,0.004-9.474,0.001-14.716   l-0.002-3.896c0-0.552,0.447-1,1-1c0.553,0,1,0.447,1,1l0.002,3.896c0.002,5.245,0.007,12.901-0.001,14.727   C41.686,45.767,41.239,46.211,40.688,46.211z"/></g><g><path d="M46.892,46.211c-0.001,0-0.003,0-0.004,0c-0.552-0.003-0.998-0.452-0.996-1.005c0.008-1.823,0.004-9.474,0.001-14.716   l-0.002-3.896c0-0.552,0.447-1,1-1c0.553,0,1,0.447,1,1l0.002,3.896c0.002,5.245,0.007,12.901-0.001,14.727   C47.889,45.767,47.442,46.211,46.892,46.211z"/></g><g><path d="M42.773,46.211h-2.085c-0.552,0-1-0.447-1-1s0.448-1,1-1h6.205h0c0.552,0,1,0.447,1,1c0,0.552-0.447,1-1,1H42.773z"/></g><g><path d="M42.778,27.594h-2.085c-0.552,0-1-0.447-1-1s0.448-1,1-1h6.205h0c0.552,0,1,0.447,1,1c0,0.552-0.447,1-1,1H42.778z"/></g></svg>