<?xml version="1.0" ?><svg width="512px" height="512px" viewBox="0 0 512 512" id="icons" xmlns="http://www.w3.org/2000/svg"><defs><style>.cls-1{stroke-linecap:round;}.cls-1,.cls-2{fill:none;stroke:#808285;stroke-miterlimit:10;stroke-width:7px;}</style></defs><path class="cls-2" d="M364.38,346c0,.74-.04,1.49-.11,2.21-27.44,19.78-64.84,30.33-99,31.3-1.29,.02-2.57,.04-3.86,.04-1.15,0-2.33-.02-3.5-.04-.59,0-1.19-.02-1.78-.04h-.17c-1.8-.04-3.63-.11-5.45-.19-2.14-.11-4.29-.21-6.41-.38-4.27-.32-8.53-.74-12.78-1.32-2.12-.28-4.24-.59-6.35-.93-2.4-.4-4.8-.83-7.19-1.29-3.57-.7-7.11-1.49-10.63-2.38-1.17-.3-2.33-.59-3.48-.91-1.17-.32-2.33-.64-3.48-.98-1.15-.34-2.29-.68-3.44-1.04-1.12-.34-2.27-.72-3.4-1.1-2.25-.74-4.48-1.55-6.69-2.38-1.1-.42-2.21-.85-3.29-1.29-1.08-.42-2.14-.87-3.2-1.32-.02,0-.04-.02-.08-.04-1.06-.45-2.1-.91-3.16-1.4-1.06-.47-2.1-.96-3.14-1.46-.95-.47-1.91-.93-2.84-1.4-.15-.06-.3-.15-.42-.21-.98-.51-1.93-1.02-2.89-1.53-1-.53-2-1.1-2.99-1.66-1.97-1.12-3.9-2.31-5.81-3.52-.93-.62-1.89-1.23-2.8-1.85-.34-.23-.66-.45-.98-.68-.04-.04-.06-.06-.11-.08-1.15-1.02-1.87-2.48-1.89-4.03v-.08c0-.32,.02-.64,.02-.96,0-.13,.02-.25,.02-.36,.02-.15,.02-.3,.04-.42v-.15c0-.06,.02-.15,.04-.21l-.02-.02s.02-.06,.02-.08c.02-.3,.06-.62,.13-.91v-.06c.02-.17,.04-.36,.08-.53,0-.04,0-.06,.02-.11,.02-.19,.06-.38,.11-.55,.04-.21,.08-.42,.15-.64l.06-.25c.02-.06,.02-.13,.04-.19,.04-.19,.11-.36,.17-.55,.02-.11,.04-.19,.08-.3,.06-.19,.13-.4,.19-.59,.04-.15,.08-.28,.15-.42v-.02c.02-.06,.04-.13,.08-.17,0-.04,0-.06,.02-.08,.13-.38,.28-.74,.45-1.1,.08-.21,.19-.45,.3-.66,0-.02,0-.04,.02-.06,.11-.23,.23-.47,.36-.7,.23-.47,.49-.96,.79-1.42,.06-.15,.15-.3,.25-.45,.13-.21,.25-.4,.38-.62,.02-.06,.06-.13,.13-.19,.21-.34,.45-.68,.68-1,.04-.06,.08-.13,.15-.19,.15-.23,.32-.47,.49-.68,.02-.04,.06-.08,.11-.13,.25-.34,.51-.68,.78-1,.11-.13,.21-.28,.34-.4,.4-.49,.85-.96,1.29-1.44,.02-.02,.06-.06,.11-.13,.3-.32,.62-.62,.93-.93,.06-.08,.15-.17,.21-.21,.11-.11,.21-.21,.34-.34,.04-.06,.11-.11,.15-.15,.08-.08,.19-.17,.28-.25,.25-.23,.51-.47,.76-.7,.17-.15,.34-.3,.51-.45,0-.02,.02-.02,.04-.02,.32-.3,.66-.57,1-.87,.3-.25,.62-.49,.91-.72,.59-.47,1.21-.93,1.85-1.4,.06-.06,.15-.11,.23-.17,.13-.11,.28-.19,.4-.3,.38-.28,.79-.55,1.19-.83l.38-.25c.28-.19,.57-.38,.87-.57,.28-.19,.57-.38,.89-.55,.28-.19,.57-.38,.89-.55,.3-.19,.59-.36,.89-.55,.23-.13,.47-.28,.72-.42,.11-.06,.21-.13,.34-.19,.19-.11,.38-.21,.59-.32,.42-.25,.85-.49,1.29-.72,.25-.15,.53-.28,.81-.42,.21-.11,.42-.23,.66-.34,.36-.19,.74-.38,1.12-.57,.19-.11,.4-.21,.59-.3,.17-.08,.34-.17,.51-.23,.72-.36,1.44-.7,2.19-1.02,.91-.42,1.85-.83,2.8-1.23,.78-.34,1.59-.66,2.4-1,.66-.25,1.32-.51,1.99-.76,.49-.19,1-.36,1.51-.55,.13-.06,.25-.11,.4-.15,.76-.28,1.55-.55,2.33-.81,1.17-.4,2.33-.79,3.54-1.17,.53-.17,1.08-.34,1.63-.49,.62-.19,1.23-.36,1.85-.55,.51-.13,1.04-.28,1.57-.42,.81-.23,1.61-.45,2.44-.66,.32-.08,.66-.17,.98-.23,.21-.06,.4-.13,.62-.17,.04-.02,.11-.02,.15-.04,.15-.04,.32-.08,.47-.11,.42-.11,.83-.21,1.25-.3,.32-.08,.66-.15,.98-.23,.85-.19,1.7-.38,2.57-.57,.51-.11,1-.21,1.51-.32,.68-.15,1.38-.28,2.06-.4,.95-.19,1.91-.38,2.89-.55,1.38-.25,2.78-.49,4.2-.72h.06c12.52-2.27,21.65-13.05,21.65-25.83v-.32c0-31.6,6.37-57.2,14.22-57.2s14.22,25.59,14.22,57.2v.3c0,12.88,9.27,23.75,21.94,25.89-.66-.08-1.29-.19-1.95-.3-.08-.02-.17-.02-.25-.02l.45,.06c.74,.11,1.46,.21,2.19,.34,1.21,.19,2.4,.38,3.57,.59,.23,.04,.47,.08,.72,.13,.49,.11,.95,.19,1.42,.28,.93,.17,1.85,.36,2.76,.55,.78,.17,1.59,.34,2.38,.51,.25,.06,.49,.11,.72,.17,.76,.17,1.53,.34,2.27,.53,.19,.04,.38,.08,.55,.13,.72,.17,1.42,.34,2.14,.53,.15,.04,.32,.08,.49,.13,.28,.06,.55,.15,.83,.21,.36,.11,.7,.19,1.06,.3,.17,.04,.36,.11,.53,.15,.79,.21,1.59,.42,2.38,.66,.78,.23,1.57,.45,2.33,.7,.08,.02,.15,.04,.23,.06,1.1,.34,2.21,.7,3.29,1.06,.04,.02,.08,.02,.13,.04,.13,.04,.23,.08,.34,.13,.49,.17,1,.34,1.49,.51,.49,.17,1,.36,1.46,.53,.08,.02,.17,.06,.23,.08,.83,.3,1.66,.62,2.46,.93,.32,.11,.64,.23,.93,.36,.23,.11,.47,.19,.68,.3,.87,.34,1.74,.7,2.59,1.08h.02c.51,.21,.98,.45,1.46,.66,.25,.11,.49,.23,.74,.34,.34,.15,.68,.32,1.02,.49,.51,.23,1.02,.49,1.53,.74,.04,.02,.06,.04,.11,.06,.64,.32,1.27,.64,1.89,.95,.7,.36,1.38,.72,2.04,1.1,.15,.08,.3,.17,.45,.25,.13,.06,.23,.13,.34,.19,.62,.36,1.23,.72,1.83,1.1,.06,.02,.13,.06,.19,.11,.02,0,.04,.02,.06,.04,.04,0,.06,.02,.08,.06,.72,.42,1.42,.87,2.1,1.34,.53,.36,1.06,.7,1.57,1.08,.17,.13,.34,.23,.53,.38,.21,.15,.42,.3,.64,.47,.38,.28,.76,.57,1.15,.87,.19,.15,.38,.3,.57,.47,.23,.19,.47,.38,.7,.57,.36,.3,.72,.62,1.08,.91,.51,.45,1,.89,1.46,1.36,.51,.49,1.02,.98,1.49,1.49,.04,.04,.08,.08,.11,.13,.53,.55,1.02,1.08,1.46,1.63,.06,.06,.11,.13,.17,.19,.28,.34,.53,.66,.79,1,.04,.04,.08,.08,.11,.13,.17,.23,.34,.45,.49,.68,.4,.55,.78,1.1,1.12,1.66,.21,.32,.4,.64,.59,.98,.23,.42,.47,.83,.66,1.23,.13,.23,.25,.47,.36,.7,.02,.02,.02,.04,.02,.06,.11,.21,.21,.45,.3,.66,.17,.36,.32,.74,.45,1.1,.02,.02,.02,.06,.02,.08,.04,.06,.06,.11,.08,.17v.02c.04,.15,.11,.28,.15,.42,.06,.19,.13,.4,.19,.59,.04,.11,.06,.19,.08,.3,.06,.19,.13,.36,.17,.55,.02,.06,.02,.13,.04,.19l.06,.25c.06,.21,.11,.42,.15,.64,.04,.17,.08,.36,.11,.55,.02,.04,.02,.06,.02,.11,.04,.19,.06,.36,.08,.53v.06c.06,.3,.11,.62,.13,.91,0,.02,0,.06,.02,.08l-.02,.02c.02,.06,.04,.15,.04,.21v.15c.02,.13,.02,.28,.04,.42,0,.11,.02,.23,.02,.36,0,.32,.02,.64,.02,.96Z"/><path class="cls-2" d="M404.07,264.02c4.07,36.21-13.18,64.05-39.79,83.21,.06-.72,.11-1.46,.11-2.21,0-20.3-29.79-37.53-71.24-43.79-11.7-1.77-20.34-11.84-20.22-23.67,0-.75,.01-1.49,.01-2.25,0-31.6-6.37-57.2-14.22-57.2s-14.22,25.59-14.22,57.2c0,.75,0,1.51,.01,2.25,.11,11.83-8.52,21.9-20.22,23.67-41.45,6.26-71.24,23.5-71.24,43.8,0,1,.06,1.97,.21,2.95-23.22-16.68-39.16-40.47-41.24-72.05,1.7-44.89-9-89.81,3.54-134.02,19.06-67.68,74.28,44.25,93.78,36.93,32.73-8.68,65.68-8.66,98.43-.06,6.24,1.63,9.06-.21,13.07-4.69,13.82-15.37,28.4-30.05,42.72-44.97,17.42-12.78,33.47-11.18,37.92,11.57,10.93,40.75,5.54,81.83,2.57,123.35Z"/><path class="cls-2" d="M253.29,329.78l-7.8-13.52c-2.41-4.18,.6-9.4,5.43-9.4h15.61c4.82,0,7.84,5.22,5.43,9.4l-7.8,13.52c-2.41,4.18-8.44,4.18-10.85,0Z"/><path class="cls-1" d="M75.17,314.4c0-8.33,25.2-15.08,56.35-15.08"/><path class="cls-1" d="M86.49,343.61c-2.11-8.04,20.56-20.94,50.69-28.84"/><path class="cls-1" d="M433.46,315.24c0-8.33-25.2-15.08-56.35-15.08"/><path class="cls-1" d="M422.14,344.45c2.11-8.04-20.56-20.94-50.69-28.84"/><path class="cls-1" d="M257.98,332.91c0,9.88-10.66,17.88-23.84,17.88"/><path class="cls-1" d="M257.98,332.91c0,9.88,10.66,17.88,23.84,17.88"/><circle class="cls-1" cx="315.01" cy="268.79" r="21.13"/><circle class="cls-1" cx="203.97" cy="268.79" r="21.13"/></svg>