<svg xmlns="http://www.w3.org/2000/svg" id="Layer_2" data-name="Layer 2" viewBox="0 0 1000 1000">
  <defs>
    <style>
      .cls-1{fill:none;stroke:#020202;stroke-linecap:round;stroke-miterlimit:10;stroke-width:22px}
    </style>
  </defs>
  <path d="m335.8,415.19 l-136.33,61 a6.16,6.16,0,0,0,-3.5,3.57 l-47.48,127.95 a6.13,6.13,0,0,0,7.68,7.95 l283,-104 l16,149.28 l-87.65,102.44 a1.64,1.64,0,0,0,-0.34,1.49 l16.68,62.56 a1.64,1.64,0,0,0,2.7,0.78 l112.32,-103.86 a1.64,1.64,0,0,1,2.24,0 l112.32,103.86 a1.64,1.64,0,0,0,2.7,-0.78 l16.68,-62.56 a1.64,1.64,0,0,0,-0.34,-1.49 L544.6,661 M424.56,374.18 l-9.44,-118.06 a84.77,84.77,0,0,1,169.54,0 l-9.54,119.21 l225.41,100.88 a6.16,6.16,0,0,1,3.5,3.57 l47.48,127.93 a6.13,6.13,0,0,1,-7.68,7.95 L560.56,511.59 L554,572.83" class="cls-1"/>
</svg>
